<?xml version="1.0" standalone="no"?>
<!DOCTYPE svg PUBLIC "-//W3C//DTD SVG 1.1//EN" "http://www.w3.org/Graphics/SVG/1.1/DTD/svg11.dtd" >
<svg xmlns="http://www.w3.org/2000/svg">
<metadata></metadata>
<defs>
<font id="news_gothic_fsbook_oblique" horiz-adv-x="493" >
<font-face units-per-em="1000" ascent="800" descent="-200" />
<missing-glyph horiz-adv-x="250" />
<glyph unicode="&#xfb01;" horiz-adv-x="457" d="M83 0l52 424h-73l6 51h73l5 41q10 78 32 111q35 50 109 50q24 0 44 -4l-7 -56q-26 6 -38 6q-39 0 -56 -27q-11 -15 -16 -57l-8 -64h246l-58 -475h-65l52 424h-181l-52 -424h-65zM398 567l9 73h65l-9 -73h-65z" />
<glyph unicode="&#xfb02;" horiz-adv-x="457" d="M83 0l51 420h-73l7 55h73l5 41q10 78 32 111q35 50 109 50q24 0 44 -4l-7 -56q-26 6 -38 6q-39 0 -56 -27q-11 -15 -16 -57l-8 -64h101l-7 -55h-101l-51 -420h-65zM329 0l81 667h65l-81 -667h-65z" />
<glyph unicode="&#xfb03;" horiz-adv-x="703" d="M83 0l52 424h-73l6 51h73l5 41q10 78 32 111q35 50 109 50q24 0 44 -4l-7 -56q-26 6 -38 6q-39 0 -56 -27q-11 -15 -16 -57l-8 -64h181l5 41q10 78 32 111q35 50 109 50q23 0 43 -4l-7 -56q-26 6 -38 6q-38 0 -55 -27q-11 -16 -16 -57l-8 -64h245l-58 -475h-65l52 424 h-180l-52 -424h-65l52 424h-181l-52 -424h-65zM643 567l9 73h65l-9 -73h-65z" />
<glyph unicode="&#xfb04;" horiz-adv-x="703" d="M83 0l52 424h-73l6 51h73l5 41q10 78 32 111q35 50 109 50q24 0 44 -4l-7 -56q-26 6 -38 6q-39 0 -56 -27q-11 -15 -16 -57l-8 -64h181l5 41q10 78 32 111q35 50 109 50q23 0 43 -4l-7 -56q-26 6 -38 6q-38 0 -55 -27q-11 -16 -16 -57l-8 -64h100l-6 -51h-100l-52 -424 h-65l52 424h-181l-52 -424h-65zM574 0l81 667h65l-81 -667h-65z" />
<glyph horiz-adv-x="0" />
<glyph horiz-adv-x="333" />
<glyph unicode=" "  horiz-adv-x="250" />
<glyph unicode="&#x09;" horiz-adv-x="250" />
<glyph unicode="&#xa0;" horiz-adv-x="250" />
<glyph unicode="!" horiz-adv-x="267" d="M133 211l41 456h80l-71 -456h-50zM93 0l11 93h80l-11 -93h-80z" />
<glyph unicode="&#x22;" horiz-adv-x="373" d="M305 400l23 267h66l-41 -267h-48zM118 400l23 267h67l-42 -267h-48z" />
<glyph unicode="#" d="M68 0l64 203h-107l20 60h106l49 154h-107l19 60h107l60 190h61l-60 -190h101l60 190h63l-60 -190h107l-19 -60h-107l-48 -154h106l-19 -60h-107l-64 -203h-63l64 203h-101l-63 -203h-62zM213 263h100l49 154h-100z" />
<glyph unicode="$" d="M64 168l66 22q17 -125 107 -143l33 270l-6 3q-56 25 -74.5 37t-32.5 31q-35 47 -27 116q9 73 58 119.5t127 56.5l9 72h42l-9 -72q57 -2 97.5 -49t45.5 -119l-64 -18q-4 54 -27 88t-59 40l-31 -249q51 -23 76 -36q89 -50 75 -162q-10 -80 -63 -130t-135 -55l-8 -66h-42 l8 66q-65 5 -110 53.5t-56 124.5zM279 388l29 236q-46 -4 -77 -35.5t-37 -78.5q-10 -87 85 -122zM279 44q50 2 84.5 36t41.5 87q8 69 -41 107q-18 14 -53 28z" />
<glyph unicode="%" horiz-adv-x="520" d="M188 376q-49 0 -71.5 40t-14.5 111q8 68 41.5 107.5t82.5 39.5q33 0 57 -20.5t31 -55.5q5 -30 0 -75q-8 -67 -42.5 -107t-83.5 -40zM51 0l450 667h49l-449 -667h-50zM194 420q59 0 71 100q15 113 -42 113q-58 0 -72 -106q-12 -107 43 -107zM290 145q8 67 42.5 107 t83.5 40t72 -40t15 -112q-8 -65 -42.5 -105.5t-81.5 -40.5q-49 0 -73 40.5t-16 110.5zM341 139q-13 -102 42 -102q28 0 46.5 28.5t24.5 80.5q14 103 -43 103t-70 -110z" />
<glyph unicode="&#x26;" horiz-adv-x="555" d="M61 179q11 78 73 137q5 4 12 8t25 16t47 34l7 5q-38 96 -30 154q8 65 48.5 104.5t98.5 39.5q57 0 87.5 -37t22.5 -96q-7 -60 -51 -107q-23 -24 -85 -69l-10 -7q40 -78 115 -197q55 84 73 164l60 -10q-22 -102 -99 -199q17 -24 48 -44t47 -17l-8 -59q-65 -3 -133 71 q-51 -44 -91.5 -62t-89.5 -18q-81 0 -129 54.5t-38 134.5zM285 413q4 3 10 8t8 6q76 56 84 119q4 33 -10.5 55t-40.5 22q-27 0 -47.5 -22t-24.5 -54q-7 -56 21 -134zM128 182q-7 -58 23.5 -98t81.5 -40q72 0 143 67q-53 62 -131 216q-60 -38 -86 -70t-31 -75z" />
<glyph unicode="'" horiz-adv-x="187" d="M118 400l23 267h67l-42 -267h-48z" />
<glyph unicode="(" horiz-adv-x="263" d="M163 -160q-40 84 -55.5 200t-2.5 225q12 97 57.5 220.5t97.5 198.5l54 -19q-111 -209 -135 -409q-24 -199 36 -396z" />
<glyph unicode=")" horiz-adv-x="263" d="M12 -140q110 198 134 396q24 201 -35 409l58 19q34 -75 49.5 -198.5t3.5 -220.5q-14 -109 -58 -225.5t-104 -199.5z" />
<glyph unicode="*" horiz-adv-x="376" d="M173 406l-31 25l80 90l-102 32l18 40l103 -38l5 112h45l-17 -112l108 38l8 -40l-111 -32l60 -90l-38 -25l-52 92z" />
<glyph unicode="+" d="M233 80l23 184h-184l5 45h184l23 184h45l-23 -184h184l-5 -45h-184l-23 -184h-45z" />
<glyph unicode="," horiz-adv-x="240" d="M80 0l11 93h80l-11 -93l-64 -133h-46l63 133h-33z" />
<glyph unicode="-" horiz-adv-x="200" d="M25 205l7 63h200l-7 -63h-200z" />
<glyph unicode="." horiz-adv-x="240" d="M80 0l11 93h80l-11 -93h-80z" />
<glyph unicode="/" horiz-adv-x="450" d="M-13 -160l426 827h51l-427 -827h-50z" />
<glyph unicode="0" d="M88 118q-24 88 -8 215q20 163 86 253t164 90q53 0 93 -28.5t56 -77.5q33 -89 15 -236q-17 -131 -62 -218q-30 -58 -81 -91.5t-107 -33.5q-57 0 -98.5 34t-57.5 93zM250 48q70 0 120 79q42 68 59 211q21 165 -20 231q-32 50 -83 50q-70 0 -117.5 -75t-64.5 -214 q-16 -136 11 -209t95 -73z" />
<glyph unicode="1" d="M131 0l7 60h99l65 532l-111 -10l5 44l135 47h48l-75 -613h91l-7 -60h-257z" />
<glyph unicode="2" d="M51 0l6 52q23 54 81.5 120.5t132.5 122.5q89 68 114 101q36 46 42 96q7 54 -21.5 90.5t-77.5 36.5q-32 0 -64.5 -18.5t-51.5 -48.5q-20 -31 -41 -86l-61 16q23 63 47 98q29 44 77.5 70t101.5 26q80 0 123 -52t32 -136q-9 -73 -60 -131q-29 -34 -122 -102 q-65 -47 -119 -103.5t-69 -91.5h319l-7 -60h-382z" />
<glyph unicode="3" d="M53 120l57 36q28 -58 61.5 -83t80.5 -25q59 0 100.5 37t48.5 98q8 68 -29.5 103.5t-119.5 35.5q-22 0 -51 -4l8 66q46 -2 52 -2q72 0 114 31.5t49 91.5q6 51 -21.5 82.5t-78.5 31.5q-77 0 -145 -84l-44 38q81 103 198 103q78 0 121.5 -46.5t34.5 -119.5 q-13 -113 -128 -156q122 -37 105 -167q-10 -88 -72 -142t-151 -54q-67 0 -111 30.5t-79 98.5z" />
<glyph unicode="4" d="M61 165l6 53l296 457h97l-55 -450h101l-7 -60h-101l-20 -165h-67l20 165h-270zM132 225h206l37 302l3 47q0 3 5 30q2 7 5 28q-14 -39 -27 -57z" />
<glyph unicode="5" d="M74 115l59 32q37 -99 121 -99q63 0 106 49t53 134q9 74 -19.5 117t-86.5 43q-41 0 -79 -25.5t-58 -65.5l-54 14l65 353h308l-7 -60h-249l-41 -212q53 53 130 53q82 0 125 -60.5t30 -159.5q-13 -107 -77.5 -172t-158.5 -65q-61 0 -104 32.5t-63 91.5z" />
<glyph unicode="6" d="M253 -9q-95 0 -141 77t-29 210q22 188 102.5 293t201.5 105q34 0 61 -9t67 -33l-39 -52q-52 37 -96 37q-100 0 -167 -115q-32 -57 -60 -171q69 90 165 90q82 0 127.5 -58.5t34.5 -149.5q-12 -97 -76.5 -160.5t-150.5 -63.5zM153 132q11 -39 40.5 -61.5t67.5 -22.5 q59 0 102 46.5t52 119.5q8 69 -21 110.5t-86 41.5q-94 0 -165 -120q-5 -67 10 -114z" />
<glyph unicode="7" d="M108 0l323 607h-305l7 60h375l-5 -40l-320 -627h-75z" />
<glyph unicode="8" d="M56 172q15 122 163 183q-58 32 -81.5 70t-16.5 90q8 70 68 115.5t145 45.5q81 0 127 -45.5t38 -116.5q-7 -53 -40.5 -90.5t-101.5 -68.5q72 -35 100.5 -77t21.5 -102q-11 -83 -76.5 -134t-162.5 -51q-92 0 -143.5 50.5t-40.5 130.5zM235 415q23 -13 64 -34 q71 29 100.5 57t34.5 72q6 50 -24 79.5t-85 29.5t-94.5 -30t-45.5 -76q-6 -61 50 -98zM120 174q-7 -55 31 -90.5t103 -35.5q64 0 109 35t52 90q8 72 -55 110q-22 14 -86 44q-75 -30 -111.5 -66t-42.5 -87z" />
<glyph unicode="9" d="M59 35l39 52q51 -39 97 -39q100 0 166 116q32 57 60 171q-69 -89 -165 -89q-82 0 -127.5 58.5t-34.5 149.5q12 95 76.5 158.5t150.5 63.5q95 0 141 -77t29 -210q-23 -188 -103 -293t-201 -105q-33 0 -60.5 9.5t-67.5 34.5zM266 303q95 0 165 120q7 94 -24 145t-94 51 q-59 0 -102 -46t-52 -119q-8 -69 21 -110t86 -41z" />
<glyph unicode=":" horiz-adv-x="240" d="M126 382l12 93h80l-12 -93h-80zM80 0l11 93h80l-11 -93h-80z" />
<glyph unicode=";" horiz-adv-x="240" d="M126 382l12 93h80l-12 -93h-80zM80 0l11 93h80l-11 -93l-64 -133h-46l63 133h-33z" />
<glyph unicode="&#x3c;" horiz-adv-x="500" d="M70 308l7 57l458 200l-8 -65l-383 -164l343 -164l-8 -65z" />
<glyph unicode="=" d="M80 331l6 45h413l-6 -45h-413zM64 197l5 45h413l-5 -45h-413z" />
<glyph unicode="&#x3e;" horiz-adv-x="500" d="M47 107l8 65l383 164l-343 164l8 65l408 -201l-7 -57z" />
<glyph unicode="?" horiz-adv-x="343" d="M134 212q0 9 3 36q4 35 15 65q8 19 18 33t62 71q58 67 64 117q5 39 -10.5 63t-45.5 24q-25 0 -42.5 -13.5t-44.5 -53.5l-45 30q61 90 145 90q53 0 84 -38.5t24 -97.5q-7 -49 -33 -88q-16 -24 -28.5 -38.5t-66.5 -70.5q-20 -23 -29 -44t-14 -63l-2 -22h-54zM95 0l11 93h80 l-11 -93h-80z" />
<glyph unicode="@" horiz-adv-x="713" d="M77 317q22 171 145 273q107 87 235 87q125 0 201.5 -82.5t62.5 -200.5q-14 -115 -110 -187q-68 -50 -128 -50q-27 0 -43.5 13.5t-19.5 37.5q-60 -51 -113 -51q-47 0 -72.5 34.5t-18.5 88.5q10 86 77 158t137 72q61 0 80 -59l21 44h60l-108 -236q-10 -22 -14 -40 q-1 -13 7.5 -21.5t24.5 -8.5q44 0 96 50q65 64 76 151q13 103 -51 173t-171 70q-62 0 -121.5 -26.5t-105.5 -73.5q-81 -83 -97 -215q-16 -128 50 -205.5t191 -77.5q80 0 151.5 38t117.5 104l49 -1q-35 -63 -93 -106q-107 -80 -232 -80q-144 0 -222.5 90.5t-61.5 236.5z M322 195q36 0 66 30q24 21 48 71l30 64q15 32 18 52q3 25 -9.5 41.5t-33.5 16.5q-49 0 -100.5 -66t-60.5 -140q-4 -32 7.5 -50.5t34.5 -18.5z" />
<glyph unicode="A" horiz-adv-x="486" d="M3 0l279 673h101l103 -673h-73l-31 211h-221l-87 -211h-71zM186 272h187l-42 290q-5 33 -6 55q-4 -13 -12 -35l-8 -20z" />
<glyph unicode="B" horiz-adv-x="536" d="M77 0l81 667h192q124 0 166 -55q37 -49 29 -114q-8 -57 -42 -96q-30 -34 -95 -51q68 -23 93 -61.5t17 -106.5q-12 -94 -78 -143q-54 -40 -150 -40h-213zM195 381h83q95 0 135 20q24 12 40 38t21 58q9 84 -65 102q-28 7 -103 7h-83zM156 61h113q58 0 87 6.5t49 23.5 q36 31 42 88q6 44 -9.5 77t-47.5 46q-49 18 -142 18h-60z" />
<glyph unicode="C" horiz-adv-x="547" d="M151 172q10 -58 47 -91.5t89 -33.5q85 0 146 92q22 37 31 69l66 -15q-34 -98 -99.5 -151.5t-151.5 -53.5q-114 0 -166.5 88t-33.5 245q21 171 96 265t191 94q162 0 190 -199l-70 -17q-17 157 -128 157q-82 0 -136.5 -77t-72.5 -220q-10 -90 2 -152z" />
<glyph unicode="D" horiz-adv-x="564" d="M77 0l81 667h111q84 0 131 -9.5t79 -33.5q111 -79 86 -288q-13 -105 -53.5 -181t-103.5 -113q-73 -42 -189 -42h-142zM156 61h48q68 0 95.5 4.5t62.5 21.5q109 52 132 245q21 168 -45 231q-46 43 -166 43h-60z" />
<glyph unicode="E" horiz-adv-x="488" d="M77 0l81 667h371l-7 -61h-299l-28 -225h219l-7 -61h-219l-32 -259h313l-7 -61h-385z" />
<glyph unicode="F" horiz-adv-x="455" d="M77 0l81 667h358l-7 -61h-286l-28 -225h213l-7 -61h-213l-39 -320h-72z" />
<glyph unicode="G" horiz-adv-x="553" d="M280 -12q-112 0 -165.5 93t-33.5 253q19 161 98 254t195 93q83 0 133.5 -54t51.5 -145l-66 -18q-13 157 -129 157q-84 0 -140 -75.5t-73 -209.5q-17 -141 19.5 -215t124.5 -74q102 0 149 105q13 30 24 106h-145l8 61h208l-39 -319h-55l9 80q-43 -51 -81.5 -71.5 t-92.5 -20.5z" />
<glyph unicode="H" horiz-adv-x="601" d="M77 0l81 667h72l-35 -286h304l35 286h72l-81 -667h-72l39 320h-304l-39 -320h-72z" />
<glyph unicode="I" horiz-adv-x="225" d="M77 0l81 667h72l-81 -667h-72z" />
<glyph unicode="J" horiz-adv-x="370" d="M7 86l62 33l4 -10q13 -35 28.5 -48.5t41.5 -13.5q58 0 87 58q14 28 27 135l52 427h72l-53 -438q-14 -107 -38 -150q-23 -42 -65.5 -66.5t-91.5 -24.5q-95 0 -126 98z" />
<glyph unicode="K" horiz-adv-x="531" d="M77 0l81 667h72l-42 -348l305 348h76l-219 -248l171 -419h-80l-143 360l-122 -134l-27 -226h-72z" />
<glyph unicode="L" horiz-adv-x="441" d="M77 0l81 667h72l-74 -606h289l-7 -61h-361z" />
<glyph unicode="M" horiz-adv-x="689" d="M77 0l81 667h124l65 -413q14 -89 14 -139q7 37 45 134l165 418h122l-81 -667h-72l65 530l4 39l6 42l1 15h-5q-26 -73 -30 -82l-211 -544h-46l-86 551l-5 24q0 1 -4 31q0 1 -0.5 4t-1.5 7.5t-2 8.5q-6 -25 -6 -27l-2 -23q0 -18 -2 -32l-66 -544h-72z" />
<glyph unicode="N" horiz-adv-x="584" d="M77 0l81 667h100l178 -455q11 -33 27 -92q-4 66 7 165l47 382h72l-81 -667h-59l-206 538q-6 12 -12 31l-8 29q0 1 -1.5 4t-3 7.5t-2.5 9.5q0 -73 -12 -163l-55 -456h-72z" />
<glyph unicode="O" horiz-adv-x="575" d="M285 -12q-114 0 -169 94t-35 254q20 158 98 251t190 93q63 0 111.5 -31t73.5 -86q38 -88 22 -226q-20 -161 -98 -255t-193 -94zM294 47q85 0 140 76.5t73 219.5q15 122 -13 189q-39 89 -130 89q-40 0 -79 -21t-64 -56q-53 -76 -71 -214q-17 -135 21 -209t123 -74z" />
<glyph unicode="P" horiz-adv-x="503" d="M77 0l81 667h168q81 0 125 -17q47 -19 70.5 -65.5t16.5 -104.5q-9 -82 -74 -136q-35 -28 -72 -38t-104 -10h-103l-36 -296h-72zM192 357h98q85 0 125 28q47 34 53 95q5 38 -9.5 69.5t-43.5 42.5q-33 14 -105 14h-87z" />
<glyph unicode="Q" horiz-adv-x="575" d="M248 -9q-99 18 -142.5 107.5t-25.5 237.5q20 158 97.5 251t191.5 93t169.5 -91.5t36.5 -248.5q-19 -154 -87 -245t-175 -105q0 -44 22.5 -62t78.5 -18q21 0 54 3l-8 -60q-30 -3 -45 -3q-92 0 -131 33t-36 108zM293 47q85 0 140 76.5t73 219.5q15 122 -13 189 q-39 89 -130 89q-40 0 -79 -21t-64 -56q-53 -76 -71 -214q-17 -135 21 -209t123 -74z" />
<glyph unicode="R" horiz-adv-x="511" d="M77 0l81 667h167q90 0 136 -17q47 -17 70.5 -61.5t16.5 -100.5q-7 -61 -47 -106t-100 -62l90 -320h-78l-84 304l-10 2h-57h-61l-15 -2l-37 -304h-72zM193 365h91q105 0 141 26q45 33 53 96q11 78 -52 106q-32 13 -129 13h-74z" />
<glyph unicode="S" horiz-adv-x="488" d="M40 168l68 22q11 -46 23 -71q16 -34 50 -53t79 -19q58 0 98 33.5t47 88.5q7 56 -35 95q-24 21 -81 41q-71 27 -101 42q-92 48 -80 155q10 78 71.5 128t147.5 50q152 0 179 -168l-67 -20q-17 129 -124 129q-53 0 -91.5 -31.5t-44.5 -79.5q-7 -63 48 -98q22 -14 71 -32 q82 -31 122 -59q67 -50 56 -145q-10 -84 -72.5 -136t-152.5 -52q-87 0 -140.5 46t-70.5 134z" />
<glyph unicode="T" horiz-adv-x="454" d="M190 0l74 606h-183l7 61h441l-7 -61h-186l-74 -606h-72z" />
<glyph unicode="U" horiz-adv-x="573" d="M118 60q-20 32 -24 69.5t5 109.5l52 428h72l-53 -433q-11 -90 7 -128q27 -59 115 -59q89 0 132 63q24 37 34 115l54 442h72l-53 -433q-7 -63 -19 -97t-35 -64q-68 -85 -199 -85q-114 0 -160 72z" />
<glyph unicode="V" horiz-adv-x="457" d="M199 0l-115 667h73l66 -413q15 -98 18 -166q13 49 27 85q6 16 13 35t11 29.5t7 16.5l169 413h67l-278 -667h-58z" />
<glyph unicode="W" horiz-adv-x="688" d="M152 -4l-61 671h70l33 -424l2 -24q7 -71 2 -125q13 59 42 141l156 432h64l43 -424q10 -95 6 -149q7 40 35 125l8 24l141 424h66l-237 -671h-56l-45 457q-9 89 -7 124q-8 -49 -36 -124l-167 -457h-59z" />
<glyph unicode="X" horiz-adv-x="470" d="M7 0l230 345l-135 322h79l91 -231l4 -9l5 -11l3 -8q1 4 18 28l149 231h72l-206 -316l147 -351h-77l-106 262q-3 6 -6.5 15.5t-5.5 13.5q-5 -7 -5 -8l-7 -12l-6 -9l-172 -262h-72z" />
<glyph unicode="Y" horiz-adv-x="441" d="M188 0l34 282l-151 385h77l110 -281q1 -8 5 -17q3 -7 5 -19q5 15 17 36l170 281h77l-237 -374l-35 -293h-72z" />
<glyph unicode="Z" horiz-adv-x="440" d="M13 0l5 43l390 563h-293l7 61h379l-5 -47l-391 -559h318l-7 -61h-403z" />
<glyph unicode="[" horiz-adv-x="263" d="M148 0q-13 -83 -19 -109h100l-6 -51h-160l101 827h160l-6 -51h-100q2 -23 -6 -93z" />
<glyph unicode="\" horiz-adv-x="450" d="M374 -160l-226 827h52l223 -827h-49z" />
<glyph unicode="]" horiz-adv-x="263" d="M6 -109h100q0 51 9 109l64 523q8 70 16 93h-100l6 51h160l-101 -827h-160z" />
<glyph unicode="^" horiz-adv-x="500" d="M73 369l216 299h86l142 -299h-72l-121 248l-180 -248h-71z" />
<glyph unicode="_" horiz-adv-x="500" d="M0 -68h500v-60h-500v60z" />
<glyph unicode="`" horiz-adv-x="500" d="M298 535l-47 120h75l22 -120h-50z" />
<glyph unicode="a" horiz-adv-x="439" d="M47 126q8 59 46.5 96t118.5 62q35 11 137 36q4 41 -3 62q-7 22 -28.5 35t-52.5 13q-80 0 -127 -76l-47 34q66 96 180 96q75 0 116 -41q37 -38 26 -131l-23 -187q-9 -75 -2 -125h-71q-1 26 2 76q-46 -49 -80 -67.5t-78 -18.5q-59 0 -90.5 37t-23.5 99zM110 128 q-5 -37 13.5 -60.5t52.5 -23.5q70 0 151 96l15 127q-106 -29 -140 -43q-46 -19 -67 -40.5t-25 -55.5z" />
<glyph unicode="b" horiz-adv-x="460" d="M63 0l81 667h65l-30 -247q59 64 136 64q78 0 117 -65.5t25 -174.5q-13 -113 -72 -183.5t-140 -70.5q-37 0 -62.5 14.5t-54.5 50.5l-18 -55h-47zM141 109q29 -37 51.5 -51.5t50.5 -14.5q59 0 99.5 53.5t51.5 146.5q11 90 -14.5 138.5t-83.5 48.5q-32 0 -55.5 -13 t-68.5 -56z" />
<glyph unicode="c" horiz-adv-x="409" d="M217 -10q-85 0 -128 67t-29 177q14 112 74.5 181t145.5 69q112 0 140 -128l-61 -20q-5 44 -29 69t-60 25q-58 0 -97 -52.5t-50 -145.5q-10 -87 17 -138t83 -51q74 0 122 94l51 -23q-65 -124 -179 -124z" />
<glyph unicode="d" horiz-adv-x="459" d="M206 -10q-79 0 -119 68t-27 178q14 110 73 179t139 69q35 0 59.5 -14.5t49.5 -49.5l30 247h65l-63 -515q-11 -90 -11 -152h-65q-2 12 -1 26q-2 20 1 23v14q-60 -73 -131 -73zM217 44q68 0 128 81l2 15l3 30l3 20l22 177q-26 35 -48.5 49t-51.5 14q-58 0 -99.5 -53.5 t-52.5 -142.5q-11 -86 15 -138t79 -52z" />
<glyph unicode="e" horiz-adv-x="431" d="M225 -10q-89 0 -133.5 68.5t-30.5 182.5q13 110 72.5 176.5t143.5 66.5q83 0 119 -65.5t22 -190.5h-292q-10 -84 19.5 -134t88.5 -50q39 0 68.5 20t66.5 72l42 -31q-73 -115 -186 -115zM133 283h222q8 67 -15.5 107t-71.5 40q-30 0 -58.5 -17t-45.5 -46q-22 -32 -31 -84z " />
<glyph unicode="f" horiz-adv-x="232" d="M83 0l51 420h-73l7 55h73l5 41q10 78 32 111q35 50 109 50q24 0 44 -4l-7 -56q-26 6 -38 6q-39 0 -56 -27q-11 -15 -16 -57l-8 -64h101l-7 -55h-101l-51 -420h-65z" />
<glyph unicode="g" horiz-adv-x="426" d="M24 -53q9 67 101 99q-31 5 -47 22.5t-13 41.5q3 22 21 40t57 39q-61 52 -51 132q9 71 61 117t125 46q61 0 100 -33q52 42 114 42l-7 -57h-10q-40 0 -72 -16q31 -48 23 -105q-8 -68 -61.5 -114.5t-124.5 -46.5q-38 0 -70 16l-7 -7q-5 -4 -10.5 -9t-8 -7t-5.5 -5t-4 -4.5 t-2.5 -3.5t-2 -4t-0.5 -4q-2 -20 21.5 -26.5t117.5 -12.5q68 -5 101 -16.5t52 -37.5q17 -25 12 -60q-7 -63 -69 -98.5t-164 -35.5q-88 0 -135.5 29t-41.5 79zM244 208q47 0 80.5 30.5t39.5 79.5t-19.5 80.5t-72.5 31.5q-46 0 -78.5 -31.5t-39.5 -81.5q-6 -49 19 -79t71 -30z M88 -43q-4 -32 25.5 -48t94.5 -16q73 0 115.5 19.5t46.5 53.5q3 23 -11.5 37t-48.5 20q-50 9 -123 9l-24 -9q-39 -15 -55.5 -29t-19.5 -37z" />
<glyph unicode="h" horiz-adv-x="465" d="M63 0l81 667h65l-32 -265q56 50 87.5 66t71.5 16q70 0 96 -50q19 -32 8 -121l-38 -313h-65l38 313q7 55 1 79q-4 16 -21 27t-38 11q-31 0 -72.5 -23.5t-74.5 -58.5l-42 -348h-65z" />
<glyph unicode="i" horiz-adv-x="192" d="M132 567l9 73h65l-9 -73h-65zM63 0l58 475h65l-58 -475h-65z" />
<glyph unicode="j" horiz-adv-x="192" d="M133 567l9 73h65l-9 -73h-65zM62 -14l60 489h65l-63 -509q-7 -65 -26 -88q-33 -39 -90 -39q-10 0 -31 3l7 54q17 -3 23 -3q26 0 36.5 18t18.5 75z" />
<glyph unicode="k" horiz-adv-x="409" d="M63 0l81 667h65l-53 -437l215 245h69l-148 -166l109 -309h-69l-87 258l-99 -105l-18 -153h-65z" />
<glyph unicode="l" horiz-adv-x="192" d="M63 0l81 667h65l-81 -667h-65z" />
<glyph unicode="m" horiz-adv-x="727" d="M63 0l58 475h65l-9 -73q82 82 156 82q40 0 66.5 -22t33.5 -60q85 82 163 82q34 0 61.5 -14.5t38.5 -38.5q16 -32 7 -100l-40 -331h-65l41 339q5 36 -3 55q-13 36 -57 36q-57 0 -142 -75l-43 -355h-65l40 331q5 38 0 58q-5 19 -20.5 30t-35.5 11q-31 0 -62.5 -17 t-79.5 -58l-43 -355h-65z" />
<glyph unicode="n" horiz-adv-x="465" d="M63 0l58 475h65l-4 -33l-2 -11l-1 -10l-2 -21q81 84 163 84q32 0 57.5 -14.5t36.5 -39.5q15 -32 5 -118l-38 -312h-65l38 312q5 50 3 70q-2 21 -19.5 34.5t-40.5 13.5q-55 0 -147 -80l-42 -350h-65z" />
<glyph unicode="o" horiz-adv-x="439" d="M218 -10q-88 0 -130 65t-28 179q14 116 72.5 183t145.5 67q91 0 132 -65.5t26 -186.5q-14 -115 -71.5 -178.5t-146.5 -63.5zM225 44q59 0 98 50.5t50 141.5q12 92 -15 143t-87 51q-62 0 -101 -55q-35 -47 -46 -136q-12 -95 14 -145t87 -50z" />
<glyph unicode="p" horiz-adv-x="462" d="M134 55l-26 -215h-65l78 635h65l-7 -55q39 35 69 49.5t65 14.5q79 0 118.5 -65.5t26.5 -174.5q-13 -113 -72.5 -184t-140.5 -71q-33 0 -56.5 14t-54.5 52zM141 109q49 -66 103 -66q60 0 100 53.5t52 148.5q15 124 -43 167q-25 18 -55 18q-58 0 -127 -72z" />
<glyph unicode="q" horiz-adv-x="461" d="M203 -10q-79 0 -118 66.5t-25 178.5q13 109 72 179t137 70q69 0 115 -64l25 55h47l-78 -635h-65l26 215q-42 -38 -70 -51.5t-66 -13.5zM223 44q58 0 124 72l30 250q-42 64 -102 64q-59 0 -100.5 -52.5t-52.5 -142.5q-23 -191 101 -191z" />
<glyph unicode="r" horiz-adv-x="293" d="M63 0l58 475h65l-15 -124q27 63 75 100q39 31 91 31h8l-8 -62q-57 -2 -98 -37.5t-79 -116.5l-32 -266h-65z" />
<glyph unicode="s" horiz-adv-x="394" d="M39 88l58 31q40 -75 118 -75q41 0 69.5 21.5t32.5 55.5q7 53 -62 80q-90 35 -107.5 43.5t-30.5 24.5q-32 33 -26 85q7 58 53 94t111 36q50 0 83 -18.5t66 -65.5l-53 -35q-35 65 -101 65q-37 0 -64.5 -20.5t-31.5 -51.5q-6 -46 63 -71q77 -29 94.5 -36.5t34.5 -22.5 q43 -33 36 -97q-8 -62 -57 -101.5t-118 -39.5q-117 0 -168 98z" />
<glyph unicode="t" horiz-adv-x="245" d="M92 27q-7 15 -7 28.5t8 83.5l34 281h-73l7 55h73l19 160h65l-19 -160h101l-7 -55h-101l-36 -295q-6 -51 6 -67q10 -15 39 -15q18 0 47 6l-6 -49q-36 -11 -69 -11q-64 0 -81 38z" />
<glyph unicode="u" horiz-adv-x="464" d="M92 33q-22 33 -7 150l36 292h65l-36 -292q-9 -73 0 -100q14 -39 52 -39q34 0 65 17.5t83 66.5l43 347h65l-58 -475h-65l9 75q-82 -85 -158 -85q-67 0 -94 43z" />
<glyph unicode="v" horiz-adv-x="372" d="M142 0l-87 475h68l64 -371q4 -22 5 -34q2 -18 2 -19l1 -12q2 7 9.5 28t13.5 37l154 371h62l-196 -475h-96z" />
<glyph unicode="w" horiz-adv-x="577" d="M139 0l-71 475h63l38 -300q7 -68 6 -106q16 62 32 106l109 300h63l36 -283q11 -83 8 -123q12 59 36 123l104 283h62l-183 -475h-58l-40 306q-9 60 -7 96q-6 -31 -30 -96l-110 -306h-58z" />
<glyph unicode="x" horiz-adv-x="356" d="M-3 0l173 248l-109 227h71l81 -175l118 175h68l-156 -227l117 -248h-69l-90 196l-134 -196h-70z" />
<glyph unicode="y" horiz-adv-x="378" d="M-8 -97q30 -9 46 -9q35 0 63.5 24t61.5 82l-101 475h63l68 -310q9 -45 14 -75q10 34 29 75l139 310h65l-201 -444q-33 -74 -70 -124q-53 -69 -128 -69q-22 0 -63 8z" />
<glyph unicode="z" horiz-adv-x="373" d="M18 0l5 42l294 378h-234l7 55h316l-5 -39l-299 -381h252l-6 -55h-330z" />
<glyph unicode="{" horiz-adv-x="260" d="M91 -15l20 163q5 43 -5 63.5t-41 29.5l6 47q31 9 47 29.5t21 59.5l22 177q8 70 45 101.5t109 31.5q11 0 19 -1l-7 -52q-56 -2 -77 -19.5t-27 -67.5l-22 -173q-5 -46 -20.5 -70t-48.5 -41q29 -17 38 -42t4 -72l-21 -166q-6 -53 10.5 -71.5t72.5 -19.5l-6 -52h-20 q-74 0 -101.5 33.5t-17.5 111.5z" />
<glyph unicode="|" horiz-adv-x="500" d="M197 -167l102 834h65l-102 -834h-65z" />
<glyph unicode="}" horiz-adv-x="260" d="M101 -17l21 166q5 46 20.5 71.5t49.5 42.5q-30 16 -39 40.5t-4 70.5l22 173q6 50 -11 67.5t-73 19.5l7 52q8 1 19 1q72 0 101 -31.5t21 -101.5l-22 -177q-5 -39 5.5 -59.5t40.5 -29.5l-6 -47q-32 -9 -47.5 -29.5t-20.5 -63.5l-20 -163q-10 -78 -45.5 -111.5t-109.5 -33.5 h-20l6 52q57 2 78 20t27 71z" />
<glyph unicode="~" horiz-adv-x="667" d="M203 586l-35 25q39 62 72 87t76 25q38 0 109 -36q67 -33 95 -33t50.5 15.5t51.5 55.5l37 -24q-70 -109 -155 -109q-22 0 -46 9t-88 40q-39 20 -66 20q-50 0 -101 -75z" />
<glyph unicode="&#xa1;" horiz-adv-x="267" d="M139 382l12 93h80l-12 -93h-80zM73 -160l71 456h50l-41 -456h-80z" />
<glyph unicode="&#xa2;" d="M107 48l50 93q-61 68 -45 197q13 111 73.5 180.5t142.5 69.5q22 0 48 -6l36 76l35 -14l-38 -78q47 -32 63 -105l-61 -21q-6 45 -30 69l-168 -337q29 -25 61 -25q76 0 123 95l51 -23q-65 -125 -180 -125q-46 0 -81 22l-48 -86zM187 206l160 324q-17 4 -28 4 q-56 0 -94.5 -53t-49.5 -145q-9 -72 12 -130z" />
<glyph unicode="&#xa3;" d="M81 84q4 38 36.5 64.5t73.5 26.5q39 0 68 -27q7 23 8 37q8 64 -23 148h-111l8 60h90q-12 70 -7 115q9 74 55.5 121.5t110.5 47.5q47 0 77 -24.5t52 -80.5l-58 -25q-17 40 -36 56.5t-49 16.5q-35 0 -59 -29.5t-30 -80.5q-7 -57 13 -117h144l-8 -60h-128q28 -83 21 -136 q-6 -41 -23 -80l5 -5l30 -30q31 -32 51 -32q30 0 54 67l48 -16q-18 -42 -29 -59q-32 -49 -87 -49q-26 0 -42 11t-61 59q-49 -70 -111 -70q-40 0 -64 26.5t-19 64.5zM137 83q-2 -13 9 -23t28 -10q33 0 60 46q-26 22 -48 22q-19 0 -33 -10.5t-16 -24.5z" />
<glyph unicode="&#xa4;" horiz-adv-x="667" d="M104 62l-30 36l102 93q-43 67 -33 143q9 74 68 142l-83 93l40 36l82 -93q77 53 152 53q77 0 137 -53l105 92l31 -35l-104 -93q43 -69 33 -143q-9 -76 -68 -142l83 -93l-40 -36l-82 93q-75 -51 -151 -51q-73 0 -138 51zM352 159q72 0 129.5 51t66.5 124q8 71 -36.5 123 t-114.5 52q-74 0 -131.5 -51.5t-66.5 -124.5q-8 -72 36.5 -123t116.5 -51z" />
<glyph unicode="&#xa5;" d="M213 0l28 234h-125l8 60h115l-31 89h-108l7 60h81l-74 224h63l59 -181q24 -74 24 -79l15 -48q2 -9 12 -38q9 16 22 38l24 48q15 28 46 82l101 178h61l-127 -224h80l-7 -60h-107l-52 -89h120l-8 -60h-132l-28 -234h-67z" />
<glyph unicode="&#xa6;" horiz-adv-x="500" d="M259 336l40 331h65l-40 -331h-65zM197 -167l39 320h65l-39 -320h-65z" />
<glyph unicode="&#xa7;" d="M31 33l64 18q8 -55 28 -86q19 -31 53 -48.5t73 -17.5q51 0 89.5 28.5t43.5 71.5q5 30 -13 51q-18 20 -46.5 35.5t-120.5 56.5q-73 32 -100.5 65.5t-21.5 81.5q4 37 24 63.5t64 53.5q-46 45 -39 114q9 71 66 116t139 45t129.5 -47.5t53.5 -135.5l-61 -15q-17 144 -131 144 q-50 0 -86.5 -27.5t-41.5 -70.5q-5 -41 23 -69t105 -61q99 -42 133 -73q43 -40 36 -101q-9 -68 -78 -117q41 -45 34 -103q-9 -73 -66.5 -116.5t-144.5 -43.5q-89 0 -140 46t-68 142zM176 241q19 -14 36 -23t102 -47q56 -25 70 -39q37 40 42 75q5 38 -25.5 65.5t-120.5 66.5 q-55 24 -78 42q-47 -34 -53 -74q-5 -41 27 -66z" />
<glyph unicode="&#xa8;" horiz-adv-x="500" d="M360 563l8 66h65l-8 -66h-65zM214 563l8 66h65l-8 -66h-65z" />
<glyph unicode="&#xa9;" horiz-adv-x="748" d="M80 333q19 152 127 252.5t253 100.5q140 0 223.5 -102t64.5 -251q-18 -149 -126.5 -250.5t-250.5 -101.5t-225.5 101.5t-65.5 250.5zM125 334q-16 -128 57.5 -219t193.5 -91t216.5 91t112.5 220q8 62 -7 120.5t-49 99.5q-33 40 -85.5 64t-107.5 24q-127 0 -221 -88 t-110 -221zM396 126q-72 0 -106 53t-22 147q12 102 59.5 158.5t120.5 56.5q53 0 82.5 -30t40.5 -94l-51 -11q-9 94 -77 94q-50 0 -82.5 -44.5t-42.5 -127.5q-10 -76 12 -118t72 -42q35 0 64.5 26t42.5 69l47 -11q-47 -126 -160 -126z" />
<glyph unicode="&#xaa;" horiz-adv-x="333" d="M188 394q-34 0 -52 21.5t-14 56.5q5 33 27 54.5t68 35.5q21 7 72 19q3 31 -7 44t-36 13q-44 0 -69 -43l-31 21q37 57 103 57q43 0 66 -23q22 -23 15 -75l-13 -103q-5 -46 0 -72h-45q-1 14 0 38q-41 -44 -84 -44zM196 429q36 0 82 52l8 66q-77 -22 -98.5 -35t-24.5 -39 q-3 -19 6.5 -31.5t26.5 -12.5z" />
<glyph unicode="&#xab;" horiz-adv-x="416" d="M199 230l143 183h59l-143 -183l108 -170h-59zM167 60l-109 170l145 183h57l-141 -183l108 -170h-60z" />
<glyph unicode="&#xac;" horiz-adv-x="500" d="M58 206l7 61h433l-32 -267h-65l25 206h-368z" />
<glyph unicode="&#xad;" horiz-adv-x="200" d="M25 205l7 63h200l-7 -63h-200z" />
<glyph unicode="&#xae;" horiz-adv-x="748" d="M80 333q19 152 127 252.5t253 100.5q140 0 223.5 -102t64.5 -251q-18 -149 -126.5 -250.5t-250.5 -101.5t-225.5 101.5t-65.5 250.5zM125 334q-16 -128 57.5 -219t193.5 -91t216.5 91t112.5 220q8 62 -7 120.5t-49 99.5q-33 40 -85.5 64t-107.5 24q-127 0 -221 -88 t-110 -221zM267 133l49 400h107q56 0 85 -10t45 -37.5t12 -61.5q-4 -36 -28.5 -63t-62.5 -38l58 -190h-56l-53 180l-4 1h-35h-38l-6 -1l-22 -180h-51zM345 355h53q63 0 85 15q28 20 31 53q6 43 -30 59q-22 8 -79 8h-43z" />
<glyph unicode="&#xaf;" horiz-adv-x="500" d="M191 570l7 49h255l-7 -49h-255z" />
<glyph unicode="&#xb0;" d="M293 377q-62 0 -101 43.5t-31 105.5q7 63 57 107t112 44q63 0 101 -44t30 -108q-8 -61 -57.5 -104.5t-110.5 -43.5zM298 420q42 0 77.5 31.5t40.5 72.5q5 46 -22 78t-71 32q-42 0 -77 -32t-40 -75q-5 -44 22 -75.5t70 -31.5z" />
<glyph unicode="&#xb1;" d="M236 100l20 164h-184l5 45h184l23 184h45l-23 -184h184l-5 -45h-184l-20 -164h-45zM39 -7l5 45h413l-5 -45h-413z" />
<glyph unicode="&#xb2;" horiz-adv-x="333" d="M74 267l5 35q32 72 131 145q55 40 73 62t22 51q4 30 -13 50.5t-46 20.5q-41 0 -68 -37q-15 -25 -25 -53l-45 11q14 35 31 62q40 58 113 58q51 0 78.5 -31.5t21.5 -82.5q-4 -40 -26 -67t-87 -73q-38 -28 -70 -58.5t-43 -50.5h196l-5 -42h-243z" />
<glyph unicode="&#xb3;" horiz-adv-x="333" d="M198 262q-43 0 -71.5 18.5t-52.5 61.5l42 25q19 -35 39 -50t49 -15q35 0 58.5 21t28.5 55q5 39 -17.5 59t-71.5 20q-14 0 -36 -3l6 47q16 -2 36 -2q88 0 96 69q4 28 -12.5 45.5t-46.5 17.5q-46 0 -89 -50l-33 27q55 64 128 64q49 0 77.5 -28.5t23.5 -72.5q-9 -67 -72 -91 q36 -18 49 -40.5t9 -59.5q-6 -52 -45 -85t-95 -33z" />
<glyph unicode="&#xb4;" horiz-adv-x="500" d="M288 534l51 121h72l-75 -121h-48z" />
<glyph unicode="&#xb6;" d="M209 -160l58 474q-7 -1 -17 -1q-79 0 -124.5 49t-36.5 126q6 49 33.5 89t69.5 63q52 27 137 27h256l-6 -49h-57l-95 -778h-67l95 778h-84l-95 -778h-67z" />
<glyph unicode="&#xb7;" horiz-adv-x="240" d="M104 200l11 93h80l-11 -93h-80z" />
<glyph unicode="&#xb8;" horiz-adv-x="500" d="M223 -79l29 79h35l-19 -50q31 -4 44.5 -17.5t10.5 -36.5q-3 -24 -23 -40t-46 -16q-31 0 -55 14l13 35q20 -14 40 -14q26 0 30 21q2 11 -9 18.5t-30 7.5q-12 0 -20 -1z" />
<glyph unicode="&#xb9;" horiz-adv-x="333" d="M124 267l5 42h61l38 307l-69 -6l4 32l86 29h34l-45 -362h57l-5 -42h-166z" />
<glyph unicode="&#xba;" horiz-adv-x="333" d="M214 395q-49 0 -73 37t-16 100q8 65 41 103t82 38q51 0 74.5 -37.5t15.5 -104.5q-8 -64 -41 -100t-83 -36zM218 430q32 0 53 27t27 76q6 50 -8 77.5t-46 27.5t-52.5 -27t-26.5 -76q-12 -105 53 -105z" />
<glyph unicode="&#xbb;" horiz-adv-x="416" d="M203 60l150 170l-97 183h57l101 -183l-151 -170h-60zM64 60l150 170l-99 183h59l99 -183l-150 -170h-59z" />
<glyph unicode="&#xbc;" horiz-adv-x="779" d="M124 267l5 42h61l38 307l-69 -6l4 32l86 29h34l-45 -362h57l-5 -42h-166zM180 0l450 667h50l-450 -667h-50zM493 97l5 35l183 273h66l-32 -266h62l-6 -42h-62l-11 -97h-48l11 97h-168zM548 139h118l26 213z" />
<glyph unicode="&#xbd;" horiz-adv-x="779" d="M124 267l5 42h61l38 307l-69 -6l4 32l86 29h34l-45 -362h57l-5 -42h-166zM180 0l450 667h50l-450 -667h-50zM488 0l4 35q14 33 50.5 72.5t81.5 72.5q55 41 73 62.5t21 50.5q4 30 -13 50.5t-46 20.5q-42 0 -67 -37q-13 -19 -26 -53l-45 11q14 35 31 62q42 58 113 58 q51 0 79 -31.5t21 -82.5q-5 -40 -26.5 -67.5t-86.5 -72.5q-90 -66 -112 -109h196l-5 -42h-243z" />
<glyph unicode="&#xbe;" horiz-adv-x="779" d="M198 262q-43 0 -71.5 18.5t-52.5 61.5l42 25q19 -35 39 -50t49 -15q35 0 58.5 21t28.5 55q5 39 -17.5 59t-71.5 20q-14 0 -36 -3l6 47q16 -2 36 -2q88 0 96 69q4 28 -12.5 45.5t-46.5 17.5q-46 0 -89 -50l-33 27q55 64 128 64q49 0 77.5 -28.5t23.5 -72.5q-9 -67 -72 -91 q36 -18 49 -40.5t9 -59.5q-6 -52 -45 -85t-95 -33zM180 0l450 667h50l-450 -667h-50zM492 97l5 35l183 273h66l-32 -266h63l-6 -42h-63l-11 -97h-48l11 97h-168zM547 139h118l26 213z" />
<glyph unicode="&#xbf;" horiz-adv-x="343" d="M214 382l12 93h80l-12 -93h-80zM45 -24q5 46 32 88q6 9 9.5 14.5t11.5 14.5t13.5 15t24.5 26.5t36 38.5q22 24 30 44t13 62l2 22h54q-1 -21 -3 -36q-6 -44 -14 -65q-7 -19 -17.5 -32t-63.5 -71q-58 -66 -64 -118q-5 -38 10.5 -62t45.5 -24q25 0 43 13.5t45 53.5l45 -31 q-62 -89 -145 -89q-54 0 -85 38.5t-23 97.5z" />
<glyph unicode="&#xc0;" horiz-adv-x="486" d="M314 721l-47 120h75l22 -120h-50zM3 0l279 673h101l103 -673h-73l-31 211h-221l-87 -211h-71zM186 272h187l-42 290q-5 33 -6 55q-4 -13 -12 -35l-8 -20z" />
<glyph unicode="&#xc1;" horiz-adv-x="486" d="M320 721l51 121h72l-75 -121h-48zM3 0l279 673h101l103 -673h-73l-31 211h-221l-87 -211h-71zM186 272h187l-42 290q-5 33 -6 55q-4 -13 -12 -35l-8 -20z" />
<glyph unicode="&#xc2;" horiz-adv-x="486" d="M199 721l120 94h67l96 -94h-65l-70 51l-83 -51h-65zM3 0l279 673h101l103 -673h-73l-31 211h-221l-87 -211h-71zM186 272h187l-42 290q-5 33 -6 55q-4 -13 -12 -35l-8 -20z" />
<glyph unicode="&#xc3;" horiz-adv-x="486" d="M211 739q7 37 33.5 59.5t61.5 22.5q17 0 28 -3.5t56 -22.5q13 -5 25 -5q36 0 46 31h43q-4 -34 -32.5 -58.5t-63.5 -24.5q-26 0 -63 19q-25 14 -42 14q-32 0 -46 -32h-46zM3 0l279 673h101l103 -673h-73l-31 211h-221l-87 -211h-71zM186 272h187l-42 290q-5 33 -6 55 q-4 -13 -12 -35l-8 -20z" />
<glyph unicode="&#xc4;" horiz-adv-x="486" d="M384 749l9 66h65l-9 -66h-65zM238 749l9 66h65l-9 -66h-65zM3 0l279 673h101l103 -673h-73l-31 211h-221l-87 -211h-71zM186 272h187l-42 290q-5 33 -6 55q-4 -13 -12 -35l-8 -20z" />
<glyph unicode="&#xc5;" horiz-adv-x="486" d="M345 719q-34 0 -54.5 23.5t-16.5 57.5q4 33 31 57t59 24q34 0 54.5 -24t16.5 -58q-5 -33 -31 -56.5t-59 -23.5zM350 755q18 0 33 13.5t17 32.5q2 20 -8.5 32.5t-29.5 12.5q-20 0 -35 -13t-17 -33q-2 -19 9.5 -32t30.5 -13zM3 0l279 673h101l103 -673h-73l-31 211h-221 l-87 -211h-71zM186 272h187l-42 290q-5 33 -6 55q-4 -13 -12 -35l-8 -20z" />
<glyph unicode="&#xc6;" horiz-adv-x="780" d="M-7 0l398 667h427l-7 -61h-299l-28 -225h217l-7 -61h-217l-32 -259h315l-7 -61h-387l25 211h-204l-124 -211h-70zM225 272h174l42 341h-9z" />
<glyph unicode="&#xc7;" horiz-adv-x="544" d="M164 139q16 -43 49 -67t76 -24q117 0 175 159l63 -15q-26 -89 -91.5 -146.5t-142.5 -58.5l-12 -38q27 -1 41.5 -16t12.5 -37q-3 -24 -23.5 -40t-47.5 -16q-30 0 -55 14l13 33q24 -12 44 -12q24 0 27 21q2 12 -10.5 20t-33.5 7l-14 -1l23 65q-105 11 -151.5 96.5 t-27.5 235.5q21 172 96 265.5t192 93.5q167 0 188 -198l-69 -17q-14 155 -129 155q-80 0 -133.5 -78.5t-71.5 -222.5q-13 -111 12 -178z" />
<glyph unicode="&#xc8;" horiz-adv-x="488" d="M335 721l-47 120h75l22 -120h-50zM77 0l81 667h371l-7 -61h-299l-28 -225h219l-7 -61h-219l-32 -259h313l-7 -61h-385z" />
<glyph unicode="&#xc9;" horiz-adv-x="488" d="M332 721l51 121h72l-75 -121h-48zM77 0l81 667h371l-7 -61h-299l-28 -225h219l-7 -61h-219l-32 -259h313l-7 -61h-385z" />
<glyph unicode="&#xca;" horiz-adv-x="488" d="M208 721l120 94h67l96 -94h-65l-70 51l-83 -51h-65zM77 0l81 667h371l-7 -61h-299l-28 -225h219l-7 -61h-219l-32 -259h313l-7 -61h-385z" />
<glyph unicode="&#xcb;" horiz-adv-x="488" d="M403 749l9 66h65l-9 -66h-65zM257 749l9 66h65l-9 -66h-65zM77 0l81 667h371l-7 -61h-299l-28 -225h219l-7 -61h-219l-32 -259h313l-7 -61h-385z" />
<glyph unicode="&#xcc;" horiz-adv-x="225" d="M180 721l-47 120h75l22 -120h-50zM77 0l81 667h72l-81 -667h-72z" />
<glyph unicode="&#xcd;" horiz-adv-x="225" d="M184 721l51 121h72l-75 -121h-48zM77 0l81 667h72l-81 -667h-72z" />
<glyph unicode="&#xce;" horiz-adv-x="225" d="M66 721l120 94h67l96 -94h-65l-70 51l-83 -51h-65zM77 0l81 667h72l-81 -667h-72z" />
<glyph unicode="&#xcf;" horiz-adv-x="225" d="M234 749l9 66h65l-9 -66h-65zM115 749l9 66h65l-9 -66h-65zM77 0l81 667h72l-81 -667h-72z" />
<glyph unicode="&#xd0;" horiz-adv-x="564" d="M77 0l39 320h-60l7 61h60l35 286h111q84 0 131 -9.5t79 -33.5q111 -79 86 -287q-13 -105 -53.5 -181.5t-103.5 -113.5q-73 -42 -189 -42h-142zM156 61h48q68 0 95.5 4.5t62.5 21.5q109 52 132 245q21 168 -45 231q-46 43 -166 43h-60l-28 -225h172l-7 -61h-172z" />
<glyph unicode="&#xd1;" horiz-adv-x="584" d="M254 739q7 37 33.5 59.5t61.5 22.5q17 0 28 -3.5t56 -22.5q13 -5 25 -5q36 0 46 31h43q-4 -34 -32.5 -58.5t-63.5 -24.5q-26 0 -63 19q-25 14 -42 14q-32 0 -46 -32h-46zM77 0l81 667h100l178 -455q11 -33 27 -92q-4 66 7 165l47 382h72l-81 -667h-59l-206 538 q-6 12 -12 31l-8 29q0 1 -1.5 4t-3 7.5t-2.5 9.5q0 -73 -12 -163l-55 -456h-72z" />
<glyph unicode="&#xd2;" horiz-adv-x="575" d="M355 721l-47 120h75l22 -120h-50zM285 -12q-114 0 -169 94t-35 254q20 158 98 251t190 93q63 0 111.5 -31t73.5 -86q38 -88 22 -226q-20 -161 -98 -255t-193 -94zM294 47q85 0 140 76.5t73 219.5q15 122 -13 189q-39 89 -130 89q-40 0 -79 -21t-64 -56q-53 -76 -71 -214 q-17 -135 21 -209t123 -74z" />
<glyph unicode="&#xd3;" horiz-adv-x="575" d="M355 721l51 121h72l-75 -121h-48zM285 -12q-114 0 -169 94t-35 254q20 158 98 251t190 93q63 0 111.5 -31t73.5 -86q38 -88 22 -226q-20 -161 -98 -255t-193 -94zM294 47q85 0 140 76.5t73 219.5q15 122 -13 189q-39 89 -130 89q-40 0 -79 -21t-64 -56q-53 -76 -71 -214 q-17 -135 21 -209t123 -74z" />
<glyph unicode="&#xd4;" horiz-adv-x="575" d="M237 721l120 94h67l96 -94h-65l-70 51l-83 -51h-65zM285 -12q-114 0 -169 94t-35 254q20 158 98 251t190 93q63 0 111.5 -31t73.5 -86q38 -88 22 -226q-20 -161 -98 -255t-193 -94zM294 47q85 0 140 76.5t73 219.5q15 122 -13 189q-39 89 -130 89q-40 0 -79 -21t-64 -56 q-53 -76 -71 -214q-17 -135 21 -209t123 -74z" />
<glyph unicode="&#xd5;" horiz-adv-x="575" d="M249 739q7 37 33.5 59.5t61.5 22.5q17 0 28 -3.5t56 -22.5q13 -5 25 -5q36 0 46 31h43q-4 -34 -32.5 -58.5t-63.5 -24.5q-26 0 -63 19q-25 14 -42 14q-32 0 -46 -32h-46zM285 -12q-114 0 -169 94t-35 254q20 158 98 251t190 93q63 0 111.5 -31t73.5 -86q38 -88 22 -226 q-20 -161 -98 -255t-193 -94zM294 47q85 0 140 76.5t73 219.5q15 122 -13 189q-39 89 -130 89q-40 0 -79 -21t-64 -56q-53 -76 -71 -214q-17 -135 21 -209t123 -74z" />
<glyph unicode="&#xd6;" horiz-adv-x="575" d="M422 749l9 66h65l-9 -66h-65zM276 749l9 66h65l-9 -66h-65zM285 -12q-114 0 -169 94t-35 254q20 158 98 251t190 93q63 0 111.5 -31t73.5 -86q38 -88 22 -226q-20 -161 -98 -255t-193 -94zM294 47q85 0 140 76.5t73 219.5q15 122 -13 189q-39 89 -130 89q-40 0 -79 -21 t-64 -56q-53 -76 -71 -214q-17 -135 21 -209t123 -74z" />
<glyph unicode="&#xd7;" d="M105 101l-28 32l173 154l-135 154l36 32l135 -154l172 154l28 -32l-172 -154l134 -154l-36 -32l-134 154z" />
<glyph unicode="&#xd8;" horiz-adv-x="574" d="M24 5l78 97q-39 95 -23 229q21 166 98 256q76 92 193 92q92 0 146 -63l63 76l32 -32l-67 -82q50 -87 32 -244q-20 -162 -98 -255t-193 -93q-101 0 -158 76l-72 -87zM153 163l322 399q-43 56 -110 56q-57 0 -104 -36t-76 -102q-28 -67 -38 -151q-11 -84 6 -166zM170 117 q26 -38 54 -54t68 -16q84 0 140 76.5t73 214.5q13 106 -9 182z" />
<glyph unicode="&#xd9;" horiz-adv-x="573" d="M364 721l-47 120h75l22 -120h-50zM118 60q-20 32 -24 69.5t5 109.5l52 428h72l-53 -433q-11 -90 7 -128q27 -59 115 -59q89 0 132 63q24 37 34 115l54 442h72l-53 -433q-7 -63 -19 -97t-35 -64q-68 -85 -199 -85q-114 0 -160 72z" />
<glyph unicode="&#xda;" horiz-adv-x="573" d="M360 721l51 121h72l-75 -121h-48zM118 60q-20 32 -24 69.5t5 109.5l52 428h72l-53 -433q-11 -90 7 -128q27 -59 115 -59q89 0 132 63q24 37 34 115l54 442h72l-53 -433q-7 -63 -19 -97t-35 -64q-68 -85 -199 -85q-114 0 -160 72z" />
<glyph unicode="&#xdb;" horiz-adv-x="573" d="M243 721l120 94h67l96 -94h-65l-70 51l-83 -51h-65zM118 60q-20 32 -24 69.5t5 109.5l52 428h72l-53 -433q-11 -90 7 -128q27 -59 115 -59q89 0 132 63q24 37 34 115l54 442h72l-53 -433q-7 -63 -19 -97t-35 -64q-68 -85 -199 -85q-114 0 -160 72z" />
<glyph unicode="&#xdc;" horiz-adv-x="573" d="M425 749l9 66h65l-9 -66h-65zM279 749l9 66h65l-9 -66h-65zM118 60q-20 32 -24 69.5t5 109.5l52 428h72l-53 -433q-11 -90 7 -128q27 -59 115 -59q89 0 132 63q24 37 34 115l54 442h72l-53 -433q-7 -63 -19 -97t-35 -64q-68 -85 -199 -85q-114 0 -160 72z" />
<glyph unicode="&#xdd;" horiz-adv-x="441" d="M288 721l51 121h72l-75 -121h-48zM188 0l34 282l-151 385h77l110 -281q1 -8 5 -17q3 -7 5 -19q5 15 17 36l170 281h77l-237 -374l-35 -293h-72z" />
<glyph unicode="&#xde;" horiz-adv-x="503" d="M77 0l81 667h72l-12 -100h96q81 0 125 -17q47 -19 70.5 -65.5t16.5 -104.5q-9 -83 -75 -136q-34 -28 -71 -38t-104 -10h-103l-24 -196h-72zM180 257h98q85 0 124 28q46 32 54 95q5 38 -10 69.5t-43 42.5q-33 14 -105 14h-87z" />
<glyph unicode="&#xdf;" horiz-adv-x="447" d="M63 0l63 519q8 60 33 93q48 65 140 65q64 0 96 -37.5t24 -102.5q-5 -43 -23 -68t-56 -44q58 -21 83.5 -78t15.5 -141q-13 -100 -70 -158t-142 -58q-29 0 -62 10l6 55q18 -12 49 -12q47 0 79 19q64 40 77 148q11 78 -18 123q-29 47 -124 47q-15 0 -23 -1l6 46q7 -1 16 -1 q53 0 84.5 27t37.5 77q6 45 -12 70t-56 25q-56 0 -79 -47q-14 -30 -21 -95l-59 -481h-65z" />
<glyph unicode="&#xe0;" horiz-adv-x="439" d="M260 535l-47 120h75l22 -120h-50zM47 126q8 59 46.5 96t118.5 62q35 11 137 36q4 41 -3 62q-7 22 -28.5 35t-52.5 13q-80 0 -127 -76l-47 34q66 96 180 96q75 0 116 -41q37 -38 26 -131l-23 -187q-9 -75 -2 -125h-71q-1 26 2 76q-46 -49 -80 -67.5t-78 -18.5 q-59 0 -90.5 37t-23.5 99zM110 128q-5 -37 13.5 -60.5t52.5 -23.5q70 0 151 96l15 127q-106 -29 -140 -43q-46 -19 -67 -40.5t-25 -55.5z" />
<glyph unicode="&#xe1;" horiz-adv-x="439" d="M262 534l51 121h72l-75 -121h-48zM47 126q8 59 46.5 96t118.5 62q35 11 137 36q4 41 -3 62q-7 22 -28.5 35t-52.5 13q-80 0 -127 -76l-47 34q66 96 180 96q75 0 116 -41q37 -38 26 -131l-23 -187q-9 -75 -2 -125h-71q-1 26 2 76q-46 -49 -80 -67.5t-78 -18.5 q-59 0 -90.5 37t-23.5 99zM110 128q-5 -37 13.5 -60.5t52.5 -23.5q70 0 151 96l15 127q-106 -29 -140 -43q-46 -19 -67 -40.5t-25 -55.5z" />
<glyph unicode="&#xe2;" horiz-adv-x="439" d="M166 535l97 120h66l67 -120h-65l-40 77l-60 -77h-65zM47 126q8 59 46.5 96t118.5 62q35 11 137 36q4 41 -3 62q-7 22 -28.5 35t-52.5 13q-80 0 -127 -76l-47 34q66 96 180 96q75 0 116 -41q37 -38 26 -131l-23 -187q-9 -75 -2 -125h-71q-1 26 2 76q-46 -49 -80 -67.5 t-78 -18.5q-59 0 -90.5 37t-23.5 99zM110 128q-5 -37 13.5 -60.5t52.5 -23.5q70 0 151 96l15 127q-106 -29 -140 -43q-46 -19 -67 -40.5t-25 -55.5z" />
<glyph unicode="&#xe3;" horiz-adv-x="439" d="M162 552q7 37 29 59.5t51 22.5q15 0 25.5 -3.5t57.5 -22.5q13 -5 23 -5q24 0 30 31h43q-4 -35 -27.5 -59t-52.5 -24q-21 0 -61 18q-28 14 -39 14q-21 0 -33 -31h-46zM47 126q8 59 46.5 96t118.5 62q35 11 137 36q4 41 -3 62q-7 22 -28.5 35t-52.5 13q-80 0 -127 -76 l-47 34q66 96 180 96q75 0 116 -41q37 -38 26 -131l-23 -187q-9 -75 -2 -125h-71q-1 26 2 76q-46 -49 -80 -67.5t-78 -18.5q-59 0 -90.5 37t-23.5 99zM110 128q-5 -37 13.5 -60.5t52.5 -23.5q70 0 151 96l15 127q-106 -29 -140 -43q-46 -19 -67 -40.5t-25 -55.5z" />
<glyph unicode="&#xe4;" horiz-adv-x="439" d="M336 563l8 66h65l-8 -66h-65zM190 563l8 66h65l-8 -66h-65zM47 126q8 59 46.5 96t118.5 62q35 11 137 36q4 41 -3 62q-7 22 -28.5 35t-52.5 13q-80 0 -127 -76l-47 34q66 96 180 96q75 0 116 -41q37 -38 26 -131l-23 -187q-9 -75 -2 -125h-71q-1 26 2 76 q-46 -49 -80 -67.5t-78 -18.5q-59 0 -90.5 37t-23.5 99zM110 128q-5 -37 13.5 -60.5t52.5 -23.5q70 0 151 96l15 127q-106 -29 -140 -43q-46 -19 -67 -40.5t-25 -55.5z" />
<glyph unicode="&#xe5;" horiz-adv-x="439" d="M282 532q-34 0 -54.5 23.5t-16.5 57.5t31 58t59 24q34 0 54.5 -24t16.5 -58t-30.5 -57.5t-59.5 -23.5zM287 568q18 0 33 13.5t17 32.5q2 20 -8 33t-29 13q-20 0 -35.5 -13.5t-17.5 -33.5q-2 -19 9.5 -32t30.5 -13zM47 126q8 59 46.5 96t118.5 62q35 11 137 36q4 41 -3 62 q-7 22 -28.5 35t-52.5 13q-80 0 -127 -76l-47 34q66 96 180 96q75 0 116 -41q37 -38 26 -131l-23 -187q-9 -75 -2 -125h-71q-1 26 2 76q-46 -49 -80 -67.5t-78 -18.5q-59 0 -90.5 37t-23.5 99zM110 128q-5 -37 13.5 -60.5t52.5 -23.5q70 0 151 96l15 127q-106 -29 -140 -43 q-46 -19 -67 -40.5t-25 -55.5z" />
<glyph unicode="&#xe6;" horiz-adv-x="702" d="M41 119q10 77 73 117.5t231 77.5q5 45 -1 64q-6 23 -28.5 37.5t-52.5 14.5q-61 0 -105 -46q-10 -10 -27 -35l-46 35q75 100 181 100q72 0 105 -38q15 -16 23 -56q60 94 157 94q57 0 94 -35t48 -98q6 -44 -2 -123h-296q-5 -90 24.5 -137t90.5 -47q36 0 65 19.5t66 68.5 l41 -31q-80 -111 -183 -111q-52 0 -91.5 27t-58.5 75q-99 -102 -196 -102q-57 0 -88 35.5t-24 93.5zM402 283h229q5 71 -18 109t-71 38q-49 0 -86 -39t-54 -108zM103 120q-4 -33 15.5 -55.5t52.5 -22.5q66 0 166 99q-8 36 -1 103l3 19q-135 -35 -182 -63.5t-54 -79.5z" />
<glyph unicode="&#xe7;" horiz-adv-x="409" d="M108 32q-64 70 -48 198q13 114 74 184t146 70q115 0 142 -128l-61 -20q-8 45 -32 69t-60 24q-54 0 -92.5 -53.5t-49.5 -144.5q-9 -74 8 -122q10 -29 35.5 -47t55.5 -18q69 0 124 93l48 -22q-58 -115 -172 -124l-14 -40q59 -8 54 -56q-3 -23 -23 -39.5t-46 -16.5 q-34 0 -55 15l12 34q24 -14 41 -14q11 0 19.5 6t9.5 14q2 15 -11 21t-46 7l24 69q-52 9 -83 41z" />
<glyph unicode="&#xe8;" horiz-adv-x="431" d="M260 535l-47 120h75l22 -120h-50zM225 -10q-89 0 -133.5 68.5t-30.5 182.5q13 110 72.5 176.5t143.5 66.5q83 0 119 -65.5t22 -190.5h-292q-10 -84 19.5 -134t88.5 -50q39 0 68.5 20t66.5 72l42 -31q-73 -115 -186 -115zM133 283h222q8 67 -15.5 107t-71.5 40 q-30 0 -58.5 -17t-45.5 -46q-22 -32 -31 -84z" />
<glyph unicode="&#xe9;" horiz-adv-x="431" d="M260 534l51 121h72l-75 -121h-48zM225 -10q-89 0 -133.5 68.5t-30.5 182.5q13 110 72.5 176.5t143.5 66.5q83 0 119 -65.5t22 -190.5h-292q-10 -84 19.5 -134t88.5 -50q39 0 68.5 20t66.5 72l42 -31q-73 -115 -186 -115zM133 283h222q8 67 -15.5 107t-71.5 40 q-30 0 -58.5 -17t-45.5 -46q-22 -32 -31 -84z" />
<glyph unicode="&#xea;" horiz-adv-x="431" d="M175 535l97 120h66l67 -120h-65l-40 77l-60 -77h-65zM225 -10q-89 0 -133.5 68.5t-30.5 182.5q13 110 72.5 176.5t143.5 66.5q83 0 119 -65.5t22 -190.5h-292q-10 -84 19.5 -134t88.5 -50q39 0 68.5 20t66.5 72l42 -31q-73 -115 -186 -115zM133 283h222q8 67 -15.5 107 t-71.5 40q-30 0 -58.5 -17t-45.5 -46q-22 -32 -31 -84z" />
<glyph unicode="&#xeb;" horiz-adv-x="431" d="M332 563l8 66h65l-8 -66h-65zM186 563l8 66h65l-8 -66h-65zM225 -10q-89 0 -133.5 68.5t-30.5 182.5q13 110 72.5 176.5t143.5 66.5q83 0 119 -65.5t22 -190.5h-292q-10 -84 19.5 -134t88.5 -50q39 0 68.5 20t66.5 72l42 -31q-73 -115 -186 -115zM133 283h222 q8 67 -15.5 107t-71.5 40q-30 0 -58.5 -17t-45.5 -46q-22 -32 -31 -84z" />
<glyph unicode="&#xec;" horiz-adv-x="192" d="M140 535l-47 120h75l22 -120h-50zM63 0l58 475h65l-58 -475h-65z" />
<glyph unicode="&#xed;" horiz-adv-x="192" d="M140 534l51 121h72l-75 -121h-48zM63 0l58 475h65l-58 -475h-65z" />
<glyph unicode="&#xee;" horiz-adv-x="192" d="M50 535l97 120h66l67 -120h-65l-40 77l-60 -77h-65zM64 0l58 475h65l-58 -475h-65z" />
<glyph unicode="&#xef;" horiz-adv-x="192" d="M195 563l8 66h65l-8 -66h-65zM76 563l8 66h65l-8 -66h-65zM63 0l58 475h65l-58 -475h-65z" />
<glyph unicode="&#xf0;" horiz-adv-x="439" d="M218 -11q-88 0 -130 65t-28 179q13 109 71 180q57 71 153 71q22 0 41 -6l-38 105l-74 -37l-15 37l77 39l-26 72l38 20l31 -70l80 40l14 -34l-78 -41l55 -130q35 -80 41 -106q15 -53 6 -133q-15 -122 -71 -186.5t-147 -64.5zM225 44q59 0 98 50.5t50 141.5q12 92 -15 143 t-87 51q-62 0 -101 -55q-35 -47 -46 -136q-12 -95 14 -145t87 -50z" />
<glyph unicode="&#xf1;" horiz-adv-x="465" d="M191 552q7 37 29 59.5t51 22.5q15 0 25.5 -3.5t57.5 -22.5q13 -5 23 -5q24 0 30 31h43q-4 -35 -27.5 -59t-52.5 -24q-20 0 -61 18q-28 14 -39 14q-21 0 -33 -31h-46zM63 0l58 475h65l-4 -33l-2 -11l-1 -10l-2 -21q81 84 163 84q32 0 57.5 -14.5t36.5 -39.5q15 -32 5 -118 l-38 -312h-65l38 312q5 50 3 70q-2 21 -19.5 34.5t-40.5 13.5q-55 0 -147 -80l-42 -350h-65z" />
<glyph unicode="&#xf2;" horiz-adv-x="439" d="M264 535l-47 120h75l22 -120h-50zM218 -10q-88 0 -130 65t-28 179q14 116 72.5 183t145.5 67q91 0 132 -65.5t26 -186.5q-14 -115 -71.5 -178.5t-146.5 -63.5zM225 44q59 0 98 50.5t50 141.5q12 92 -15 143t-87 51q-62 0 -101 -55q-35 -47 -46 -136q-12 -95 14 -145 t87 -50z" />
<glyph unicode="&#xf3;" horiz-adv-x="439" d="M264 534l51 121h72l-75 -121h-48zM218 -10q-88 0 -130 65t-28 179q14 116 72.5 183t145.5 67q91 0 132 -65.5t26 -186.5q-14 -115 -71.5 -178.5t-146.5 -63.5zM225 44q59 0 98 50.5t50 141.5q12 92 -15 143t-87 51q-62 0 -101 -55q-35 -47 -46 -136q-12 -95 14 -145 t87 -50z" />
<glyph unicode="&#xf4;" horiz-adv-x="439" d="M173 535l97 120h66l67 -120h-65l-40 77l-60 -77h-65zM218 -10q-88 0 -130 65t-28 179q14 116 72.5 183t145.5 67q91 0 132 -65.5t26 -186.5q-14 -115 -71.5 -178.5t-146.5 -63.5zM225 44q59 0 98 50.5t50 141.5q12 92 -15 143t-87 51q-62 0 -101 -55q-35 -47 -46 -136 q-12 -95 14 -145t87 -50z" />
<glyph unicode="&#xf5;" horiz-adv-x="439" d="M172 552q7 37 29 59.5t51 22.5q15 0 25.5 -3.5t57.5 -22.5q13 -5 23 -5q24 0 30 31h43q-4 -35 -27.5 -59t-52.5 -24q-21 0 -61 18q-28 14 -39 14q-21 0 -33 -31h-46zM218 -10q-88 0 -130 65t-28 179q14 116 72.5 183t145.5 67q91 0 132 -65.5t26 -186.5 q-14 -115 -71.5 -178.5t-146.5 -63.5zM225 44q59 0 98 50.5t50 141.5q12 92 -15 143t-87 51q-62 0 -101 -55q-35 -47 -46 -136q-12 -95 14 -145t87 -50z" />
<glyph unicode="&#xf6;" horiz-adv-x="439" d="M336 563l8 66h65l-8 -66h-65zM190 563l8 66h65l-8 -66h-65zM218 -10q-88 0 -130 65t-28 179q14 116 72.5 183t145.5 67q91 0 132 -65.5t26 -186.5q-14 -115 -71.5 -178.5t-146.5 -63.5zM225 44q59 0 98 50.5t50 141.5q12 92 -15 143t-87 51q-62 0 -101 -55 q-35 -47 -46 -136q-12 -95 14 -145t87 -50z" />
<glyph unicode="&#xf7;" d="M246 374l14 107h93l-14 -107h-93zM72 264l5 45h413l-5 -45h-413zM211 88l13 107h93l-13 -107h-93z" />
<glyph unicode="&#xf8;" horiz-adv-x="441" d="M52 0l38 55q-45 64 -29 183q13 113 72.5 179.5t145.5 66.5q65 0 110 -42l42 54l28 -29l-44 -58q35 -63 22 -177q-14 -115 -71.5 -178.5t-146.5 -63.5q-59 0 -102 30l-37 -46zM129 104l223 289q-35 36 -79 36q-60 0 -100 -52t-51 -144q-9 -75 7 -129zM152 68 q34 -25 72 -25q61 0 100.5 49.5t50.5 138.5q9 75 -3 121z" />
<glyph unicode="&#xf9;" horiz-adv-x="464" d="M283 535l-47 120h75l22 -120h-50zM92 33q-22 33 -7 150l36 292h65l-36 -292q-9 -73 0 -100q14 -39 52 -39q34 0 65 17.5t83 66.5l43 347h65l-58 -475h-65l9 75q-82 -85 -158 -85q-67 0 -94 43z" />
<glyph unicode="&#xfa;" horiz-adv-x="464" d="M283 534l51 121h72l-75 -121h-48zM92 33q-22 33 -7 150l36 292h65l-36 -292q-9 -73 0 -100q14 -39 52 -39q34 0 65 17.5t83 66.5l43 347h65l-58 -475h-65l9 75q-82 -85 -158 -85q-67 0 -94 43z" />
<glyph unicode="&#xfb;" horiz-adv-x="464" d="M189 535l97 120h66l67 -120h-65l-40 77l-60 -77h-65zM92 33q-22 33 -7 150l36 292h65l-36 -292q-9 -73 0 -100q14 -39 52 -39q34 0 65 17.5t83 66.5l43 347h65l-58 -475h-65l9 75q-82 -85 -158 -85q-67 0 -94 43z" />
<glyph unicode="&#xfc;" horiz-adv-x="464" d="M348 563l8 66h65l-8 -66h-65zM202 563l8 66h65l-8 -66h-65zM92 33q-22 33 -7 150l36 292h65l-36 -292q-9 -73 0 -100q14 -39 52 -39q34 0 65 17.5t83 66.5l43 347h65l-58 -475h-65l9 75q-82 -85 -158 -85q-67 0 -94 43z" />
<glyph unicode="&#xfd;" horiz-adv-x="378" d="M241 534l51 121h72l-75 -121h-48zM-8 -97q30 -9 46 -9q35 0 63.5 24t61.5 82l-101 475h63l68 -310q9 -45 14 -75q10 34 29 75l139 310h65l-201 -444q-33 -74 -70 -124q-53 -69 -128 -69q-22 0 -63 8z" />
<glyph unicode="&#xfe;" horiz-adv-x="462" d="M134 55l-26 -215h-65l101 827h65l-30 -247q39 35 69 49.5t65 14.5q79 0 118.5 -65.5t26.5 -174.5q-13 -113 -72.5 -184t-140.5 -71q-33 0 -56.5 14t-54.5 52zM141 109q49 -66 103 -66q60 0 100 53.5t52 148.5q15 124 -43 167q-25 18 -55 18q-58 0 -127 -72z" />
<glyph unicode="&#xff;" horiz-adv-x="378" d="M309 563l8 66h65l-8 -66h-65zM163 563l8 66h65l-8 -66h-65zM-8 -97q30 -9 46 -9q35 0 63.5 24t61.5 82l-101 475h63l68 -310q9 -45 14 -75q10 34 29 75l139 310h65l-201 -444q-33 -74 -70 -124q-53 -69 -128 -69q-22 0 -63 8z" />
<glyph unicode="&#x152;" horiz-adv-x="867" d="M287 -12q-115 0 -170.5 95t-35.5 258q20 159 96 249.5t191 90.5q123 0 162 -96l10 82h366l-7 -61h-298l-28 -225h215l-7 -61h-215l-32 -259h313l-7 -61h-381l9 76q-75 -88 -181 -88zM295 47q85 0 137.5 73t69.5 213q16 128 -14 200q-16 41 -50 64.5t-77 23.5 q-40 0 -78 -20.5t-62 -54.5q-54 -74 -69 -203q-17 -140 20.5 -218t122.5 -78z" />
<glyph unicode="&#x153;" horiz-adv-x="740" d="M222 -10q-90 0 -133 64.5t-29 179.5q14 116 73 183t148 67q108 0 146 -96q36 51 75.5 73.5t90.5 22.5q116 0 141 -123q9 -42 1 -133h-294q-11 -83 19.5 -133.5t91.5 -50.5q36 0 65.5 20t64.5 67l38 -30q-74 -111 -181 -111q-105 0 -149 96q-68 -96 -168 -96zM448 283h224 q6 71 -16.5 109t-71.5 38t-84 -38.5t-52 -108.5zM225 44q61 0 100 49.5t50 139.5q11 94 -16 145.5t-88 51.5q-34 0 -64 -19.5t-48 -51.5q-26 -47 -35 -122q-12 -92 14.5 -142.5t86.5 -50.5z" />
<glyph unicode="&#x178;" horiz-adv-x="441" d="M359 749l9 66h65l-9 -66h-65zM213 749l9 66h65l-9 -66h-65zM188 0l34 282l-151 385h77l110 -281q1 -8 5 -17q3 -7 5 -19q5 15 17 36l170 281h77l-237 -374l-35 -293h-72z" />
<glyph unicode="&#x2c6;" horiz-adv-x="500" d="M200 535l97 120h66l67 -120h-65l-40 77l-60 -77h-65z" />
<glyph unicode="&#x2dc;" horiz-adv-x="500" d="M192 552q7 37 29 59.5t51 22.5q15 0 25.5 -3.5t57.5 -22.5q13 -5 23 -5q24 0 30 31h43q-4 -35 -27.5 -59t-52.5 -24q-20 0 -61 18q-28 14 -39 14q-21 0 -33 -31h-46z" />
<glyph unicode="&#x2000;" horiz-adv-x="440" />
<glyph unicode="&#x2001;" horiz-adv-x="881" />
<glyph unicode="&#x2002;" horiz-adv-x="440" />
<glyph unicode="&#x2003;" horiz-adv-x="881" />
<glyph unicode="&#x2004;" horiz-adv-x="293" />
<glyph unicode="&#x2005;" horiz-adv-x="220" />
<glyph unicode="&#x2006;" horiz-adv-x="146" />
<glyph unicode="&#x2007;" horiz-adv-x="146" />
<glyph unicode="&#x2008;" horiz-adv-x="110" />
<glyph unicode="&#x2009;" horiz-adv-x="176" />
<glyph unicode="&#x200a;" horiz-adv-x="48" />
<glyph unicode="&#x2010;" horiz-adv-x="200" d="M25 205l7 63h200l-7 -63h-200z" />
<glyph unicode="&#x2011;" horiz-adv-x="200" d="M25 205l7 63h200l-7 -63h-200z" />
<glyph unicode="&#x2012;" horiz-adv-x="200" d="M25 205l7 63h200l-7 -63h-200z" />
<glyph unicode="&#x2013;" d="M65 205l7 63h413l-7 -63h-413z" />
<glyph unicode="&#x2014;" horiz-adv-x="600" d="M25 205l7 63h600l-7 -63h-600z" />
<glyph unicode="&#x2018;" horiz-adv-x="240" d="M134 440l11 93l63 134h46l-62 -134h33l-11 -93h-80z" />
<glyph unicode="&#x2019;" horiz-adv-x="240" d="M121 440l62 134h-33l11 93h80l-11 -93l-63 -134h-46z" />
<glyph unicode="&#x201a;" horiz-adv-x="240" d="M80 0l11 93h80l-11 -93l-64 -133h-46l63 133h-33z" />
<glyph unicode="&#x201c;" horiz-adv-x="400" d="M294 440l11 93l63 134h46l-62 -134h33l-11 -93h-80zM134 440l11 93l63 134h46l-62 -134h33l-11 -93h-80z" />
<glyph unicode="&#x201d;" horiz-adv-x="400" d="M281 440l62 134h-33l11 93h80l-11 -93l-63 -134h-46zM121 440l62 134h-33l11 93h80l-11 -93l-63 -134h-46z" />
<glyph unicode="&#x201e;" horiz-adv-x="400" d="M240 0l11 93h80l-11 -93l-64 -133h-46l63 133h-33zM80 0l11 93h80l-11 -93l-64 -133h-46l63 133h-33z" />
<glyph unicode="&#x2022;" horiz-adv-x="667" d="M359 201q-57 0 -93 40.5t-29 97.5q8 59 53.5 99t104.5 40q55 0 90.5 -41t28.5 -97q-7 -58 -52.5 -98.5t-102.5 -40.5z" />
<glyph unicode="&#x2026;" horiz-adv-x="720" d="M560 0l11 93h80l-11 -93h-80zM320 0l11 93h80l-11 -93h-80zM80 0l11 93h80l-11 -93h-80z" />
<glyph unicode="&#x202f;" horiz-adv-x="176" />
<glyph unicode="&#x2039;" horiz-adv-x="277" d="M167 60l-109 170l145 183h57l-141 -183l108 -170h-60z" />
<glyph unicode="&#x203a;" horiz-adv-x="277" d="M64 60l151 170l-97 183h56l101 -183l-151 -170h-60z" />
<glyph unicode="&#x205f;" horiz-adv-x="220" />
<glyph unicode="&#x20ac;" horiz-adv-x="633" d="M69 244l33 60h61q0 13 1 16q4 33 7 44h-87l33 60h68q15 55 34 97q79 159 233 159q162 0 190 -199l-71 -17q-15 157 -127 157q-134 0 -190 -197h244l-33 -60h-224q-2 -10 -3.5 -17t-2 -12.5t-1.5 -9.5q0 -2 -0.5 -8.5t-0.5 -12.5h200l-34 -60h-170q0 -92 38.5 -144.5 t105.5 -52.5q85 0 146 92q20 32 31 69l66 -16q-35 -98 -100.5 -151t-150.5 -53q-99 0 -151.5 65t-54.5 191h-90z" />
<glyph unicode="&#x2122;" horiz-adv-x="674" d="M345 287l46 380h79l41 -233q7 -47 8 -58q5 16 20 55l97 236h78l-46 -380h-49l37 300l4 39q-4 -12 -6 -16q-1 -3 -2.5 -7t-2.5 -6t-1 -3l-124 -307h-32l-53 311l-3 13l-1 4q-1 4 -1 7l-1 -9q0 -5 -1 -11v-7l-38 -308h-49zM144 287l41 339h-108l5 41h267l-5 -41h-110 l-41 -339h-49z" />
<glyph unicode="&#x25fc;" horiz-adv-x="475" d="M0 475h475v-475h-475v475z" />
</font>
</defs>
</svg>
