<?xml version="1.0" standalone="no"?>
<!DOCTYPE svg PUBLIC "-//W3C//DTD SVG 1.1//EN" "http://www.w3.org/Graphics/SVG/1.1/DTD/svg11.dtd" >
<svg xmlns="http://www.w3.org/2000/svg">
<metadata></metadata>
<defs>
<font id="news_gothic_fsdemibold" horiz-adv-x="533" >
<font-face units-per-em="1000" ascent="800" descent="-200" />
<missing-glyph horiz-adv-x="250" />
<glyph unicode="&#xfb01;" horiz-adv-x="521" d="M76 0v386h-73v81h73v43q0 51 11 80.5t37 50.5q37 29 112 29q21 0 54 -3v-93q-33 8 -48 8q-29 0 -42 -20q-7 -11 -7 -52v-43l271 1v-468h-117v386h-154v-386h-117zM347 559v108h117v-108h-117z" />
<glyph unicode="&#xfb02;" horiz-adv-x="521" d="M76 0v386h-73v81h73v43q0 51 11 80.5t37 50.5q37 29 112 29q21 0 54 -3v-93q-33 8 -47 8q-30 0 -43 -20q-7 -11 -7 -52v-43h97v-81h-97v-386h-117zM347 0v667h117v-667h-117z" />
<glyph unicode="&#xfb03;" horiz-adv-x="792" d="M76 0v386h-73v81h73v43q0 51 11 80.5t37 50.5q37 29 112 29q21 0 54 -3v-93q-33 8 -47 8q-30 0 -43 -20q-7 -11 -7 -52v-43h154v43q0 51 11 80.5t37 50.5q37 29 112 29q21 0 54 -3v-93q-33 8 -47 8q-30 0 -43 -20q-7 -11 -7 -52v-43l271 1v-468h-117v386h-154v-386h-117 v386h-154v-386h-117zM618 559v108h117v-108h-117z" />
<glyph unicode="&#xfb04;" horiz-adv-x="792" d="M76 0v386h-73v81h73v43q0 51 11 80.5t37 50.5q37 29 112 29q21 0 54 -3v-93q-33 8 -47 8q-30 0 -43 -20q-7 -11 -7 -52v-43h154v43q0 51 11 80.5t37 50.5q37 29 112 29q21 0 54 -3v-93q-33 8 -47 8q-30 0 -43 -20q-7 -11 -7 -52v-43h97v-81h-97v-386h-117v386h-154v-386 h-117zM618 0v667h117v-667h-117z" />
<glyph horiz-adv-x="0" />
<glyph horiz-adv-x="333" />
<glyph unicode=" "  horiz-adv-x="250" />
<glyph unicode="&#x09;" horiz-adv-x="250" />
<glyph unicode="&#xa0;" horiz-adv-x="250" />
<glyph unicode="!" horiz-adv-x="273" d="M84 212l-11 455h127l-18 -455h-98zM80 0v120h113v-120h-113z" />
<glyph unicode="&#x22;" horiz-adv-x="426" d="M275 399l-22 268h133l-22 -268h-89zM62 399l-22 268h133l-22 -268h-89z" />
<glyph unicode="#" horiz-adv-x="553" d="M52 0l36 187h-80l19 95h80l21 110h-80l20 101h80l33 174h101l-34 -174h116l34 174h101l-34 -174h80l-20 -101h-80l-21 -110h80l-19 -95h-80l-36 -187h-101l36 187h-116l-36 -187h-100zM207 282h116l21 110h-116z" />
<glyph unicode="$" d="M70 76q-28 37 -34 94l121 26q5 -43 32 -73t63 -33v194q-72 21 -105 37q-42 20 -66 60.5t-24 92.5q0 83 53.5 138t141.5 63v80h41v-80q82 -5 133.5 -50.5t58.5 -118.5l-112 -18q-9 79 -80 94v-183q110 -25 160.5 -74.5t50.5 -130.5q0 -88 -55.5 -142t-155.5 -63v-101h-41 v101h-11q-46 0 -94 24.5t-77 62.5zM252 411v171q-35 -6 -56 -30t-21 -58q0 -64 77 -83zM293 88q92 12 92 91q0 68 -92 93v-184z" />
<glyph unicode="%" horiz-adv-x="694" d="M166 337q-64 0 -102 44.5t-38 119.5q0 79 38 125t103 46q62 0 100.5 -45.5t38.5 -118.5q0 -77 -38.5 -124t-101.5 -47zM199 0l231 667h65l-230 -667h-66zM165 400q52 0 52 108q0 101 -51 101t-51 -104q0 -105 50 -105zM386 162q0 79 38 124t104 45q63 0 101 -46.5 t38 -123.5q0 -76 -38.5 -120.5t-105.5 -44.5q-63 0 -100 45t-37 121zM476 168q0 -110 51 -110q27 0 38.5 25t11.5 82q0 103 -51 103q-50 0 -50 -100z" />
<glyph unicode="&#x26;" horiz-adv-x="605" d="M37 174q0 110 124 182q-30 56 -40.5 87t-10.5 65q0 71 48 120t118 49q65 0 110 -44.5t45 -109.5q0 -55 -30 -98.5t-101 -90.5l8 -10q5 -6 15.5 -19.5t14 -17.5t11 -13.5t10.5 -12.5t9 -10t9.5 -11t9.5 -10t12 -11.5t12.5 -12t15.5 -14.5q34 60 41 123l101 -19 q-14 -96 -59 -159q45 -27 89 -29v-109q-97 2 -167 55q-79 -64 -184 -64q-91 0 -151 52t-60 132zM254 402q3 2 7 4q32 19 51 50t19 65q0 29 -16 47.5t-41 18.5q-28 0 -46 -18.5t-18 -47.5q0 -47 44 -119zM150 192q0 -47 33 -79.5t81 -32.5q55 0 92 35q-109 106 -146 166 q-34 -22 -47 -41t-13 -48z" />
<glyph unicode="'" horiz-adv-x="213" d="M62 399l-22 268h133l-22 -268h-89z" />
<glyph unicode="(" horiz-adv-x="307" d="M115 28q-38 132 -38 262q0 99 30.5 220t77.5 210l92 -29q-87 -206 -87 -411q0 -206 87 -412l-90 -28q-49 110 -72 188z" />
<glyph unicode=")" horiz-adv-x="307" d="M30 -132q87 206 87 412q0 203 -87 411l92 29q47 -89 77.5 -210t30.5 -220q0 -130 -38 -262q-22 -75 -72 -188z" />
<glyph unicode="*" horiz-adv-x="400" d="M139 393l-66 56l59 65l-79 26l26 77l80 -29l-6 79h91l-4 -79l81 25l25 -85l-77 -21l52 -72l-72 -49l-49 77z" />
<glyph unicode="+" d="M230 100v197h-197v72h197v198h72v-198h198v-72h-198v-197h-72z" />
<glyph unicode="," horiz-adv-x="247" d="M67 0v120h113v-97l-84 -143l-29 13l38 107h-38z" />
<glyph unicode="-" horiz-adv-x="222" d="M0 185v97h222v-97h-222z" />
<glyph unicode="." horiz-adv-x="247" d="M67 0v120h113v-120h-113z" />
<glyph unicode="/" horiz-adv-x="430" d="M0 -160l286 827h91l-286 -827h-91z" />
<glyph unicode="0" d="M270 -10q-104 0 -170.5 96t-66.5 246q0 151 66.5 248t170.5 97t167 -94t63 -250q0 -154 -63 -248.5t-167 -94.5zM267 85q39 0 64 33q51 69 51 210q0 109 -34 195q-24 59 -78 59q-58 0 -88 -74q-30 -73 -30 -174q0 -112 31.5 -180.5t83.5 -68.5z" />
<glyph unicode="1" d="M112 0v96h109v457h-109v66l159 48h62v-571h108v-96h-329z" />
<glyph unicode="2" d="M39 0v96q52 100 187 208q79 62 107 100t28 81t-24.5 69.5t-64.5 26.5q-55 0 -83 -44q-15 -25 -23 -73l-116 20q31 193 218 193q98 0 155 -52.5t57 -142.5t-63 -156q-20 -21 -95 -75q-100 -73 -167 -155h325v-96h-441z" />
<glyph unicode="3" d="M82 55q-34 35 -52 103l110 25q15 -52 42 -75t72 -23q49 0 79.5 31t30.5 80q0 56 -40 83t-125 27h-27v91q74 0 106 11q62 22 62 86q0 38 -25 62.5t-63 24.5q-65 0 -106 -80l-98 38q28 67 82 102.5t128 35.5q86 0 143.5 -49t57.5 -122q0 -102 -104 -145q61 -14 94.5 -57.5 t33.5 -107.5q0 -91 -64.5 -148.5t-165.5 -57.5q-108 0 -171 65z" />
<glyph unicode="4" d="M40 162v84l223 421h151v-409h97v-96h-97v-162h-112v162h-262zM153 258h149v313q-11 -36 -23 -58z" />
<glyph unicode="5" d="M43 130l104 46q20 -49 45 -70t63 -21q53 0 87 42t34 106q0 61 -31 100.5t-79 39.5q-65 0 -104 -77l-101 26l8 345h371v-96h-278v-166q56 63 131 63q88 0 145 -64.5t57 -163.5q0 -107 -67 -178.5t-167 -71.5q-74 0 -133 38t-85 102z" />
<glyph unicode="6" d="M73 137q-34 81 -34 188q0 157 73 254.5t191 97.5q83 0 134 -49q25 -23 43 -69l-104 -31q-19 53 -77 53q-38 0 -68 -27t-46 -74q-13 -38 -18 -111q71 65 148 65q82 0 135 -60t53 -154q0 -102 -61 -166t-159 -64q-149 0 -210 147zM284 85q44 0 72 35.5t28 93.5t-26.5 91.5 t-72.5 33.5q-65 0 -118 -59q0 -89 32 -142t85 -53z" />
<glyph unicode="7" d="M82 0l264 571h-283v96h427v-45l-274 -622h-134z" />
<glyph unicode="8" d="M36 176q0 61 38 110t99 67q-52 16 -82.5 56t-30.5 93q0 75 60 125t150 50q87 0 145 -50t58 -126q0 -101 -105 -148q62 -24 95.5 -68.5t33.5 -103.5q0 -83 -66.5 -137t-169.5 -54q-98 0 -161.5 52.5t-63.5 133.5zM273 391q4 2 8 3q34 14 53.5 43.5t19.5 64.5 q0 38 -22.5 58.5t-62.5 20.5q-43 0 -66.5 -21.5t-23.5 -60.5q0 -72 94 -108zM155 188q0 -45 32.5 -74t82.5 -29t79 27t29 74q0 42 -28 73q-14 15 -63 44l-14 8q-11 -6 -14 -8q-17 -10 -34.5 -19t-25 -13.5t-13.5 -10.5q-31 -28 -31 -72z" />
<glyph unicode="9" d="M95 39q-23 24 -43 69l104 31q19 -53 78 -53q38 0 68.5 27t45.5 74q13 38 18 111q-72 -65 -148 -65q-82 0 -135 60t-53 154q0 102 61 166t158 64q149 0 210 -147q34 -81 34 -188q0 -157 -73 -254.5t-191 -97.5q-83 0 -134 49zM248 328q64 0 118 59q0 88 -32 141.5 t-85 53.5q-45 0 -72.5 -35.5t-27.5 -93.5t26.5 -91.5t72.5 -33.5z" />
<glyph unicode=":" horiz-adv-x="247" d="M67 348v120h113v-120h-113zM67 0v120h113v-120h-113z" />
<glyph unicode=";" horiz-adv-x="247" d="M67 348v120h113v-120h-113zM67 0v120h113v-97l-84 -143l-29 13l38 107h-38z" />
<glyph unicode="&#x3c;" horiz-adv-x="500" d="M33 290v99l433 216v-115l-310 -151l310 -151v-114z" />
<glyph unicode="=" d="M33 377v72h467v-72h-467zM33 217v72h467v-72h-467z" />
<glyph unicode="&#x3e;" horiz-adv-x="500" d="M33 73v116l310 150l-310 151v115l433 -217v-98z" />
<glyph unicode="?" horiz-adv-x="400" d="M91 194v9q0 72 21 116.5t91 117.5q26 27 35.5 44.5t9.5 37.5q0 26 -16 44t-39 18q-54 0 -81 -74l-89 52q19 52 66 83.5t106 31.5q72 0 117 -42t45 -110q0 -48 -25 -90q-12 -20 -23.5 -33.5t-56.5 -58.5q-32 -31 -42 -60t-9 -86h-110zM88 0v119h117v-119h-117z" />
<glyph unicode="@" horiz-adv-x="713" d="M120 89q-37 42 -59.5 108t-22.5 132q0 147 97.5 248.5t239.5 101.5q125 0 213 -83t88 -202q0 -118 -88 -188q-62 -51 -123 -51q-58 0 -70 53q-54 -51 -107 -51q-47 0 -76.5 34.5t-29.5 88.5q0 86 58 158t127 72q51 0 72 -59l17 44h75l-83 -236q-5 -15 -5 -29 q0 -12 9.5 -20t24.5 -8q49 0 89.5 58t40.5 128q0 95 -67 160t-165 65q-113 0 -189.5 -81.5t-76.5 -201.5q0 -54 17.5 -109t45.5 -86q31 -36 87.5 -58t116.5 -22q44 0 81 13t96 48l42 -38q-61 -50 -112.5 -70t-117.5 -20q-72 0 -137.5 27t-107.5 74zM305 217q56 0 86 84 l19 54q9 27 9 47t-12 33.5t-29 13.5q-41 0 -78 -56t-37 -119q0 -26 11.5 -41.5t30.5 -15.5z" />
<glyph unicode="A" horiz-adv-x="541" d="M-7 0l193 667h169l189 -667h-131l-47 177h-203l-48 -177h-122zM186 267h157l-65 257q-11 42 -14 57q-2 -21 -6 -35q-1 -3 -7 -27z" />
<glyph unicode="B" horiz-adv-x="579" d="M70 0v667h218q67 0 99.5 -6t62.5 -25q35 -22 56 -61.5t21 -83.5q0 -106 -95 -142q52 -16 81 -56.5t29 -99.5q0 -95 -71 -152q-52 -41 -147 -41h-254zM193 393h80q60 0 85 14q41 23 41 81q0 60 -48 80q-21 8 -71 8h-87v-183zM193 99h92q42 0 57.5 3t31.5 14q41 28 41 85 q0 31 -14 56t-37 34q-26 11 -89 11h-82v-203z" />
<glyph unicode="C" horiz-adv-x="595" d="M312 -10q-131 0 -203 90.5t-72 254.5q0 157 74.5 249.5t202.5 92.5q119 0 188 -80q41 -48 57 -130l-122 -20q-7 60 -39.5 95.5t-81.5 35.5q-73 0 -112.5 -61.5t-39.5 -176.5q0 -123 37.5 -187t108.5 -64q103 0 127 139l122 -18q-16 -105 -80.5 -162.5t-166.5 -57.5z" />
<glyph unicode="D" horiz-adv-x="609" d="M70 0v667h161q100 0 132.5 -6.5t70.5 -29.5q67 -43 103 -120.5t36 -177.5q0 -91 -31 -165t-87 -118q-37 -28 -80.5 -39t-122.5 -11h-182zM193 99h55q106 0 152 56t46 186q0 149 -74 198q-42 29 -131 29h-48v-469z" />
<glyph unicode="E" horiz-adv-x="531" d="M70 0v667h415v-99h-292v-175h243v-99h-243v-195h308v-99h-431z" />
<glyph unicode="F" horiz-adv-x="490" d="M70 0v667h397v-99h-274v-175h218v-99h-218v-294h-123z" />
<glyph unicode="G" horiz-adv-x="601" d="M302 -10q-124 0 -195 88t-71 243q0 164 75 260t202 96q57 0 106.5 -21t77.5 -58q37 -49 51 -132l-116 -17q-11 68 -37.5 98.5t-75.5 30.5q-73 0 -114 -65t-41 -181q0 -244 151 -244q117 0 117 126v16h-124v99h240v-329h-91l-11 53q-34 -63 -144 -63z" />
<glyph unicode="H" horiz-adv-x="626" d="M70 0v667h123v-262h240v262h123v-667h-123v306h-240v-306h-123z" />
<glyph unicode="I" horiz-adv-x="263" d="M70 0v667h123v-667h-123z" />
<glyph unicode="J" horiz-adv-x="451" d="M3 137l120 26q13 -75 70 -75q47 0 64 49q7 22 7 95v435h123v-455q0 -223 -199 -223q-72 0 -119.5 38t-65.5 110z" />
<glyph unicode="K" horiz-adv-x="580" d="M70 0v667h123v-302l220 302h135l-198 -261l220 -406h-137l-161 301l-79 -100v-201h-123z" />
<glyph unicode="L" horiz-adv-x="482" d="M70 0v667h123v-568h276v-99h-399z" />
<glyph unicode="M" horiz-adv-x="767" d="M70 0v667h208l87 -353q5 -15 10 -35q17 -60 18 -107q2 45 16 111l6 28l78 356h204v-667h-117v511q0 9 1 20v16q0 18 -1 38q-11 -60 -16 -81l-123 -504h-105l-133 504l-7 26q-7 28 -13 55q4 -44 4 -81v-504h-117z" />
<glyph unicode="N" horiz-adv-x="647" d="M70 0v667h178l177 -354q25 -50 46 -127q-11 79 -11 138v343h117v-667h-121l-236 456q-21 39 -40 89q7 -30 7 -112v-433h-117z" />
<glyph unicode="O" horiz-adv-x="609" d="M305 -10q-124 0 -196 89.5t-72 244.5q0 164 72.5 258.5t198.5 94.5q122 0 193.5 -91.5t71.5 -247.5q0 -118 -42 -210q-30 -66 -89 -102t-137 -36zM301 89q77 0 117 77q28 54 28 163q0 249 -141 249q-69 0 -105 -64t-36 -186q0 -239 137 -239z" />
<glyph unicode="P" horiz-adv-x="567" d="M70 0v667h216q98 0 156 -29q45 -23 71.5 -70.5t26.5 -105.5q0 -84 -55 -141q-30 -31 -70.5 -44t-105.5 -13h-116v-264h-123zM193 363h98q62 0 89 21q33 27 33 82q0 65 -46 90q-24 12 -91 12h-83v-205z" />
<glyph unicode="Q" horiz-adv-x="609" d="M118 68q-82 91 -82 256q0 164 72.5 258.5t199.5 94.5q121 0 192.5 -91.5t71.5 -245.5q0 -183 -82 -274q-52 -58 -142 -73q-2 -14 -2 -17q0 -24 12 -33.5t41 -9.5h60h11h30v-84q-82 -2 -99 -2q-82 0 -116.5 25t-34.5 85q0 14 3 38q-85 18 -135 73zM300 89q77 0 117 77 q28 54 28 163q0 249 -141 249q-69 0 -105 -64t-36 -186q0 -239 137 -239z" />
<glyph unicode="R" horiz-adv-x="564" d="M70 0v667h202q66 0 92.5 -3.5t58.5 -17.5q50 -21 80 -67.5t30 -102.5q0 -112 -120 -160l141 -316h-134l-128 295l-10 -2h-43h-37l-9 2v-295h-123zM193 389h93q56 0 83 16q36 22 36 70q0 55 -40 79q-25 14 -93 14h-79v-179z" />
<glyph unicode="S" horiz-adv-x="519" d="M23 170l125 27q21 -108 117 -108q46 0 73 24t27 65q0 38 -26.5 60.5t-88.5 38.5q-94 24 -130 47q-76 49 -76 151q0 89 62.5 145.5t160.5 56.5q86 0 140 -44.5t65 -125.5l-116 -20q-4 44 -28.5 68t-65.5 24t-66 -23.5t-25 -60.5q0 -40 21 -57.5t89 -34.5q75 -18 123 -47 q88 -52 88 -159q0 -93 -63 -150t-166 -57t-165.5 47t-74.5 133z" />
<glyph unicode="T" horiz-adv-x="510" d="M193 0v561h-186v106h497v-106h-188v-561h-123z" />
<glyph unicode="U" horiz-adv-x="594" d="M108 65q-28 33 -36.5 68t-8.5 124v410h123v-410q0 -58 4 -82.5t17 -43.5q30 -42 90 -42q77 0 99 58q11 28 11 102v418h123v-418q0 -111 -38 -165q-30 -43 -85 -68.5t-118 -25.5q-117 0 -181 75z" />
<glyph unicode="V" horiz-adv-x="500" d="M190 0l-197 667h127l115 -425q16 -57 23 -104q2 47 17 104l111 425h120l-190 -667h-126z" />
<glyph unicode="W" horiz-adv-x="750" d="M150 0l-143 667h126l75 -392q10 -56 12 -115q1 53 13 115l78 392h130l82 -400q14 -67 16 -107q1 21 5 54q5 29 9 53l70 400h121l-147 -667h-128l-89 406q-8 34 -11 104q-3 -66 -11 -104l-88 -406h-120z" />
<glyph unicode="X" horiz-adv-x="536" d="M0 0l205 348l-189 319h138l101 -185l5 -9q3 -5 11 -28q5 19 14 37l100 185h126l-182 -315l207 -352h-142l-115 215q-11 22 -15 32q-5 -18 -13 -32l-121 -215h-130z" />
<glyph unicode="Y" horiz-adv-x="507" d="M191 0v274l-204 393h131l122 -265q13 -29 16 -40q5 23 13 40l127 265h125l-207 -383v-284h-123z" />
<glyph unicode="Z" horiz-adv-x="474" d="M17 0v88l292 480h-283v99h432v-87l-293 -481h293v-99h-441z" />
<glyph unicode="[" horiz-adv-x="307" d="M97 -160v827h200v-85h-95v-657h89v-85h-194z" />
<glyph unicode="\" horiz-adv-x="430" d="M339 -160l-286 827h90l287 -827h-91z" />
<glyph unicode="]" horiz-adv-x="307" d="M16 -75h89v657h-95v85h200v-827h-194v85z" />
<glyph unicode="^" horiz-adv-x="500" d="M9 342l164 328h153l164 -328h-122l-118 236l-119 -236h-122z" />
<glyph unicode="_" horiz-adv-x="500" d="M0 -51h500v-105h-500v105z" />
<glyph unicode="`" horiz-adv-x="500" d="M217 542l-97 123h124l55 -123h-82z" />
<glyph unicode="a" horiz-adv-x="497" d="M36 125q0 73 64 112t223 61q0 49 -3 64q-8 38 -65 38q-74 0 -84 -61l-111 16q26 126 190 126q190 0 190 -156v-214q0 -62 7 -111h-113q-6 18 -11 47q-75 -57 -145 -57q-64 0 -103 37t-39 98zM153 119q0 -22 14 -35.5t37 -13.5q47 0 119 55v85q-65 -9 -110 -26 q-60 -21 -60 -65z" />
<glyph unicode="b" horiz-adv-x="501" d="M57 0v667h117v-249q58 64 129 64q75 0 122 -68.5t47 -178.5q0 -111 -49.5 -178t-131.5 -67q-37 0 -66 13.5t-64 47.5l-9 -51h-95zM174 127l10 -10q26 -26 44.5 -35.5t40.5 -9.5q86 0 86 156q0 76 -23 120t-64 44q-44 0 -94 -60v-205z" />
<glyph unicode="c" horiz-adv-x="459" d="M29 226q0 115 61 185.5t159 70.5q70 0 120 -44t62 -117l-104 -17q-2 46 -24 71.5t-58 25.5q-48 0 -73.5 -41t-25.5 -120q0 -80 26 -124t72 -44q69 0 83 93l104 -14q-9 -75 -59.5 -118t-129.5 -43q-97 0 -155 64.5t-58 171.5z" />
<glyph unicode="d" horiz-adv-x="502" d="M208 -10q-82 0 -130.5 65t-48.5 174q0 107 44 175q23 35 60 56.5t75 21.5q66 0 121 -61v246h117v-667h-101l-8 61q-31 -39 -60.5 -55t-68.5 -16zM240 71q25 0 42.5 11.5t46.5 46.5v18v27v22v141q-36 55 -90 55q-41 0 -67 -45t-26 -117q0 -73 25.5 -116t68.5 -43z" />
<glyph unicode="e" horiz-adv-x="464" d="M29 231q0 115 56.5 183t152.5 68q93 0 145.5 -64.5t52.5 -177.5q0 -17 -1 -30h-288q0 -65 26.5 -102t73.5 -37q63 0 86 77l102 -16q-10 -62 -64.5 -102t-130.5 -40q-98 0 -154.5 64.5t-56.5 176.5zM147 280h179q-4 49 -16 75q-21 45 -71 45q-41 0 -64.5 -31t-27.5 -89z " />
<glyph unicode="f" horiz-adv-x="271" d="M76 0v386h-73v81h73v43q0 51 11 80.5t37 50.5q37 29 112 29q21 0 54 -3v-93q-33 8 -47 8q-30 0 -43 -20q-7 -11 -7 -52v-43h97v-81h-97v-386h-117z" />
<glyph unicode="g" horiz-adv-x="477" d="M30 -46q0 46 56 75q-25 17 -33.5 31t-8.5 36q0 31 20.5 51t68.5 36q-84 44 -84 133q0 72 53 118.5t135 46.5t128 -47q36 48 85 48q13 0 29 -5v-75q-10 14 -32 14t-46 -14q25 -46 25 -85q0 -68 -51 -114t-127 -46q-27 0 -68 10q-38 -13 -38 -33q0 -12 13 -19 q12 -6 30.5 -7.5t116.5 -4.5q58 -2 92 -13t59 -36q31 -31 31 -77q0 -63 -60.5 -98.5t-167.5 -35.5t-166.5 29.5t-59.5 81.5zM238 229q32 0 51 22.5t19 61.5q0 41 -18.5 64t-50.5 23q-33 0 -53 -22.5t-20 -60.5q0 -40 20 -64t52 -24zM113 -26q0 -28 36 -43.5t100 -15.5 q147 0 147 48q0 37 -80 36q-121 -2 -183 11l-2 -2q-18 -18 -18 -34z" />
<glyph unicode="h" horiz-adv-x="497" d="M57 0v667h117v-263q70 77 143 77q32 0 60.5 -15.5t43.5 -40.5q20 -32 20 -98v-327h-117v307q0 39 -6 53q-14 31 -49 31q-22 0 -40 -9t-49 -35l-6 -5v-342h-117z" />
<glyph unicode="i" horiz-adv-x="231" d="M57 559v108h117v-108h-117zM57 0v468h117v-468h-117z" />
<glyph unicode="j" horiz-adv-x="231" d="M57 559v108h117v-108h-117zM57 -7v475h117v-484q0 -68 -25 -102q-35 -48 -128 -48q-24 0 -52 6v89q24 -2 38 -2q29 0 39.5 13.5t10.5 52.5z" />
<glyph unicode="k" horiz-adv-x="469" d="M57 0v667h117v-387l141 188h126l-136 -168l158 -300h-126l-110 210l-53 -66v-144h-117z" />
<glyph unicode="l" horiz-adv-x="231" d="M57 0v667h117v-667h-117z" />
<glyph unicode="m" horiz-adv-x="775" d="M57 0v468h117v-65q86 78 157 78q88 0 111 -85q75 85 153 85q67 0 103 -47q26 -33 26 -94v-340h-117v326q0 35 -13.5 50t-46.5 15q-26 0 -46.5 -11t-49.5 -40v-340h-117v296q0 55 -10 70q-16 25 -50 25q-46 0 -100 -51v-340h-117z" />
<glyph unicode="n" horiz-adv-x="499" d="M57 0v468h117v-70q56 83 147 83q34 0 64.5 -19t42.5 -48q14 -35 14 -111v-303h-117v303q0 48 -8 62q-13 26 -51 26q-47 0 -92 -48v-343h-117z" />
<glyph unicode="o" horiz-adv-x="477" d="M29 234q0 114 56.5 180.5t153.5 66.5t153.5 -66.5t56.5 -180.5q0 -88 -41 -155q-54 -89 -169 -89q-97 0 -153.5 66t-56.5 178zM238 71q94 0 94 168q0 161 -92 161q-94 0 -94 -161q0 -168 92 -168z" />
<glyph unicode="p" horiz-adv-x="505" d="M57 -160v628h117v-72q46 85 131 85q79 0 125.5 -66t46.5 -179q0 -100 -35 -161q-22 -38 -60.5 -61.5t-81.5 -23.5q-88 0 -126 91v-241h-117zM174 142q42 -62 93 -62q93 0 93 152q0 168 -89 168q-26 0 -46.5 -14t-50.5 -54v-190z" />
<glyph unicode="q" horiz-adv-x="499" d="M205 -10q-80 0 -128 65.5t-48 173.5q0 105 44 172q25 37 62.5 58.5t78.5 21.5q75 0 125 -56l10 43h94v-628h-117v206q-60 -56 -121 -56zM242 80q46 0 84 39v230q-35 52 -81 52t-72.5 -46.5t-26.5 -126.5q0 -70 25.5 -109t70.5 -39z" />
<glyph unicode="r" horiz-adv-x="354" d="M57 0v468h117v-109q36 64 72 93.5t80 29.5q6 0 22 -2v-109l-23 1q-64 3 -106 -38q-20 -19 -32.5 -43t-12.5 -43v-248h-117z" />
<glyph unicode="s" horiz-adv-x="395" d="M20 122l104 17q7 -37 23 -52.5t47 -15.5t50.5 16.5t19.5 42.5q0 20 -15 31t-49 18q-110 21 -148 66q-28 33 -28 84q0 67 50 110t129 43q73 0 119 -44q29 -28 37 -74l-103 -17q-6 29 -19.5 41t-39.5 12q-29 0 -48 -16.5t-19 -42.5q0 -16 8 -26q11 -12 25 -17t83 -20 q125 -28 125 -138q0 -69 -49.5 -109.5t-133.5 -40.5q-73 0 -113 31.5t-55 100.5z" />
<glyph unicode="t" horiz-adv-x="291" d="M111 14q-24 20 -32.5 47.5t-8.5 85.5v239h-73v81h73v136h117v-136h97v-81h-97v-231q0 -47 7 -57q12 -20 43 -20q14 0 47 10v-88q-53 -11 -84 -11q-59 0 -89 25z" />
<glyph unicode="u" horiz-adv-x="499" d="M85 38q-18 24 -23 48t-5 87v295h117v-295q0 -47 2 -61t10 -23q15 -18 47 -18q48 0 93 48v349h117v-468h-107v62q-37 -40 -68 -56t-74 -16q-73 0 -109 48z" />
<glyph unicode="v" horiz-adv-x="403" d="M141 0l-148 468h118l87 -312q4 -12 6.5 -24t4.5 -22.5t3 -14.5q5 23 5 28q1 4 1.5 8t1.5 7t1 4l4 14l76 312h108l-137 -468h-131z" />
<glyph unicode="w" horiz-adv-x="622" d="M138 0l-131 468h111l63 -269q14 -58 17 -83q1 30 12 83l54 269h114l48 -250q14 -75 15 -102q5 49 7 55l7 33l3 14l59 250h99l-131 -468h-107l-48 251q-14 70 -14 94q-6 -53 -15 -94l-55 -251h-108z" />
<glyph unicode="x" horiz-adv-x="442" d="M0 0l162 240l-142 228h129l74 -136l82 136h119l-144 -220l162 -248h-137l-82 156l-98 -156h-125z" />
<glyph unicode="y" horiz-adv-x="412" d="M12 -57q39 -16 66 -16t44 16.5t33 59.5l-162 465h121l83 -291l4 -14q5 -17 11 -43q2 6 5.5 20.5t9.5 36.5l85 291h106l-158 -465q-26 -79 -55 -113q-48 -53 -121 -53q-33 0 -72 14v92z" />
<glyph unicode="z" horiz-adv-x="428" d="M21 0v66l243 321h-227v81h366v-69l-239 -318h239v-81h-382z" />
<glyph unicode="{" horiz-adv-x="307" d="M78 -17v151q0 67 -55 78v101q30 6 42.5 26t12.5 61v149q0 77 36 110.5t119 33.5q1 0 12 -0.5t22 -0.5h30v-106h-16q-53 0 -66.5 -12.5t-13.5 -59.5v-122q0 -49 -13 -76t-48 -49q36 -23 48.5 -49t12.5 -76v-123q0 -34 3.5 -45t15.5 -18q15 -9 61 -9h16v-105l-30 -1 q-17 -1 -35 -1q-82 0 -118 33t-36 110z" />
<glyph unicode="|" horiz-adv-x="500" d="M192 -167v834h117v-834h-117z" />
<glyph unicode="}" horiz-adv-x="307" d="M10 -53h16q46 0 63 10q11 8 14 19t3 43v123q0 50 12.5 76t48.5 49q-35 22 -48 49t-13 76v122q0 47 -13.5 59.5t-66.5 12.5h-16v106h30q11 0 22 0.5t12 0.5q83 0 119 -33.5t36 -110.5v-149q0 -41 12.5 -61t42.5 -26v-101q-55 -11 -55 -78v-151q0 -77 -36 -110t-118 -33 q-18 0 -35 1l-30 1v105z" />
<glyph unicode="~" horiz-adv-x="667" d="M156 565l-65 43q1 3 2.5 6.5t3 6t1.5 3.5q30 65 61.5 91t80.5 26q33 0 105 -27q66 -25 89 -25q25 0 41 11.5t35 42.5l66 -39q-34 -72 -69 -99q-40 -29 -87 -29q-28 0 -145 43q-23 9 -43 9q-26 0 -41.5 -13t-34.5 -50z" />
<glyph unicode="&#xa1;" horiz-adv-x="273" d="M80 348v120h113v-120h-113zM73 -160l11 433h98l18 -433h-127z" />
<glyph unicode="&#xa2;" d="M133 17l38 101q-102 65 -102 207q0 114 60 185.5t156 71.5q26 0 55 -6l33 92l39 -15l-34 -93q37 -20 62 -57.5t31 -81.5l-104 -17q0 40 -24 70l-105 -288q24 -14 46 -14q69 0 83 93l104 -14q-11 -77 -60.5 -119t-128.5 -42q-36 0 -72 10l-39 -98zM207 225l101 273 q-16 3 -23 3q-99 0 -99 -166q0 -61 21 -110z" />
<glyph unicode="&#xa3;" d="M63 108q0 46 32.5 77t81.5 31q25 0 51 -17q1 16 -9 49t-25 61h-118v96h82q-17 55 -17 98q0 74 47.5 121.5t120.5 47.5q60 0 106 -33.5t64 -89.5l-102 -34q-8 29 -24.5 45.5t-38.5 16.5q-26 0 -40 -18.5t-14 -52.5q0 -44 19 -101h163v-96h-129q34 -88 34 -129 q0 -14 -6 -36l3 -2q5 -5 10 -9.5t8 -6.5l3 -3q22 -21 35 -21q14 0 24.5 8.5t26.5 33.5l93 -41q-59 -110 -143 -110q-25 0 -44 11.5t-62 50.5q-34 -62 -104 -62q-55 0 -91.5 32.5t-36.5 82.5zM149 110q0 -16 13 -28.5t30 -12.5q25 0 40 45q-20 32 -43 32q-16 0 -28 -11 t-12 -25z" />
<glyph unicode="&#xa4;" horiz-adv-x="667" d="M91 28l-65 65l101 101q-45 66 -45 139q0 70 46 138l-103 102l65 66l103 -103q68 46 141 46t138 -45l101 101l65 -65l-100 -101q46 -71 46 -140q0 -70 -44 -137l101 -102l-64 -65l-102 101q-68 -46 -142 -46q-69 0 -141 46zM178 332q0 -64 45.5 -109.5t109.5 -45.5 t109.5 46t45.5 110q0 63 -45.5 109t-107.5 46q-66 0 -111.5 -45.5t-45.5 -110.5z" />
<glyph unicode="&#xa5;" d="M206 0v189h-115v84h109l-48 103h-93v84h59l-93 207h128l72 -178q25 -61 44 -135q27 93 46 141l70 172h123l-90 -207h56v-84h-90l-48 -103h109v-84h-116v-189h-123z" />
<glyph unicode="&#xa6;" horiz-adv-x="500" d="M192 323v344h117v-344h-117zM192 153h117v-320h-117v320z" />
<glyph unicode="&#xa7;" d="M46 -1l115 32q17 -46 38.5 -64.5t56.5 -18.5q33 0 54.5 18.5t21.5 45.5q0 16 -9 27q-10 11 -25.5 19t-101.5 43q-94 39 -123 76q-32 39 -32 90q0 43 20.5 73.5t67.5 59.5q-50 47 -50 110q0 71 56.5 120.5t136.5 49.5q70 0 121 -37t74 -103l-106 -35q-32 76 -94 76 q-28 0 -47 -16.5t-19 -41.5q0 -19 9 -26q11 -13 26.5 -21t99.5 -42q79 -32 113 -66q43 -46 43 -102q0 -80 -85 -143q47 -46 47 -103q0 -75 -57.5 -123t-146.5 -48q-159 0 -204 150zM227 220q29 -15 121 -58q32 38 32 72q0 28 -28 52t-90 48q-59 24 -74 33q-34 -37 -34 -72 q0 -23 15.5 -39t57.5 -36z" />
<glyph unicode="&#xa8;" horiz-adv-x="500" d="M291 556v107h113v-107h-113zM97 556v107h113v-107h-113z" />
<glyph unicode="&#xa9;" horiz-adv-x="734" d="M33 333q0 152 95.5 252.5t240.5 100.5q140 0 236 -102t96 -251t-96 -250.5t-238 -101.5t-238 101.5t-96 250.5zM86 334q0 -124 82.5 -212.5t198.5 -88.5t198.5 88.5t82.5 213.5q0 60 -21.5 117t-58.5 97q-37 39 -91 62t-107 23q-122 0 -203 -85.5t-81 -214.5zM209 334 q0 94 45 149.5t122 55.5q125 0 148 -130l-78 -12q-5 36 -22.5 56.5t-45.5 20.5q-42 0 -64.5 -35.5t-22.5 -101.5q0 -145 83 -145q59 0 72 83l78 -12q-9 -65 -48 -100.5t-101 -35.5q-79 0 -122.5 54.5t-43.5 152.5z" />
<glyph unicode="&#xaa;" horiz-adv-x="347" d="M139 394q-37 0 -59.5 21.5t-22.5 56.5q0 42 35 64t125 35v13q0 23 -7.5 31t-27.5 8q-41 0 -45 -34l-67 10q14 75 109 75q109 0 109 -90v-119q0 -38 4 -65h-68q-3 7 -6 24q-41 -30 -79 -30zM154 444q24 0 63 30v43q-89 -13 -89 -48q0 -25 26 -25zM18 303v53h313v-53h-313z " />
<glyph unicode="&#xab;" horiz-adv-x="370" d="M245 46l-74 188l74 187h82l-72 -187l68 -188h-78zM100 46l-77 188l77 187h79l-74 -187l74 -188h-79z" />
<glyph unicode="&#xac;" horiz-adv-x="500" d="M33 158v109h433v-267h-117v158h-316z" />
<glyph unicode="&#xad;" horiz-adv-x="222" d="M0 185v97h222v-97h-222z" />
<glyph unicode="&#xae;" horiz-adv-x="734" d="M33 333q0 152 95.5 252.5t240.5 100.5q140 0 236 -102t96 -251t-96 -250.5t-238 -101.5t-238 101.5t-96 250.5zM86 334q0 -124 82.5 -212.5t198.5 -88.5t198.5 88.5t82.5 213.5q0 60 -21.5 117t-58.5 97q-37 39 -91 62t-107 23q-122 0 -203 -85.5t-81 -214.5zM230 133 v400h122q60 0 91 -13q30 -13 48 -41t18 -62q0 -68 -69 -96l84 -188h-86l-76 173q-5 -1 -12 -1h-17l-24 1v-173h-79zM309 369h51q36 0 51.5 11t15.5 37q0 28 -17 39.5t-58 11.5h-43v-99z" />
<glyph unicode="&#xaf;" horiz-adv-x="500" d="M104 560v85h293v-85h-293z" />
<glyph unicode="&#xb0;" horiz-adv-x="380" d="M190 377q-62 0 -106 43.5t-44 105.5q0 63 44 107t106 44q63 0 106.5 -44t43.5 -108q0 -61 -44 -104.5t-106 -43.5zM190 438q35 0 61 26t26 61q0 38 -25.5 64.5t-62.5 26.5q-34 0 -60 -27t-26 -62q0 -37 25.5 -63t61.5 -26z" />
<glyph unicode="&#xb1;" d="M230 127v170h-197v72h197v198h72v-198h198v-72h-198v-170h-72zM33 0v72h467v-72h-467z" />
<glyph unicode="&#xb2;" horiz-adv-x="358" d="M30 267v60q33 60 121 125q50 36 67.5 58t17.5 46t-14.5 39t-38.5 15q-55 0 -66 -70l-80 13q20 120 143 120q64 0 101.5 -31.5t37.5 -86.5q0 -56 -41 -95q-16 -15 -61 -45q-59 -39 -102 -85h204v-63h-289z" />
<glyph unicode="&#xb3;" horiz-adv-x="358" d="M58 300q-22 22 -35 66l77 16q11 -32 26.5 -45t43.5 -13q31 0 49.5 17.5t18.5 45.5q0 61 -103 61q-11 0 -20 -1v61q53 0 70 6q38 12 38 48q0 20 -15 34t-38 14q-42 0 -66 -49l-69 25q37 87 139 87q57 0 94.5 -30t37.5 -74q0 -28 -16 -51t-44 -34q40 -16 57.5 -39t17.5 -59 q0 -55 -42.5 -90t-108.5 -35q-70 0 -112 39z" />
<glyph unicode="&#xb4;" horiz-adv-x="500" d="M208 542l52 123h125l-93 -123h-84z" />
<glyph unicode="&#xb6;" d="M244 -160v474q-8 -1 -17 -1q-84 0 -138 49t-54 126q0 49 23.5 89.5t64.5 62.5q51 27 140 27h263v-60h-48v-767h-84v767h-66v-767h-84z" />
<glyph unicode="&#xb7;" horiz-adv-x="247" d="M67 187v120h113v-120h-113z" />
<glyph unicode="&#xb8;" horiz-adv-x="500" d="M214 -94l22 94h44l-14 -63q72 -8 72 -63q0 -29 -23 -46t-62 -17q-29 0 -65 12l11 40q20 -10 48 -10q13 0 21.5 7.5t8.5 18.5q0 27 -40 27h-23z" />
<glyph unicode="&#xb9;" horiz-adv-x="358" d="M77 267v63h70v263h-70v45l105 29h43v-337h69v-63h-217z" />
<glyph unicode="&#xba;" horiz-adv-x="347" d="M173 395q-54 0 -86.5 37.5t-32.5 100.5q0 65 32 103t87 38t87.5 -37.5t32.5 -102.5q0 -63 -32.5 -101t-87.5 -38zM173 446q49 0 49 90q0 87 -48 87q-49 0 -49 -87q0 -90 48 -90zM17 303v53h313v-53h-313z" />
<glyph unicode="&#xbb;" horiz-adv-x="370" d="M191 46l74 188l-74 187h78l78 -187l-78 -188h-78zM47 46l68 188l-72 187h82l73 -187l-73 -188h-78z" />
<glyph unicode="&#xbc;" horiz-adv-x="813" d="M258 0l231 667h66l-230 -667h-67zM77 267v63h70v263h-70v45l105 29h43v-337h69v-63h-217zM486 96v54l142 250h104v-241h62v-63h-62v-96h-78v96h-168zM556 158h95v178q-4 -9 -9 -18z" />
<glyph unicode="&#xbd;" horiz-adv-x="813" d="M258 0l231 667h66l-230 -667h-67zM77 267v63h70v263h-70v45l105 29h43v-337h69v-63h-217zM486 0v60q33 60 121 125q50 36 67.5 58t17.5 46t-14.5 39t-38.5 15q-55 0 -66 -70l-80 13q20 120 143 120q64 0 101.5 -31.5t37.5 -86.5q0 -56 -41 -95q-16 -15 -61 -45 q-59 -39 -102 -85h204v-63h-289z" />
<glyph unicode="&#xbe;" horiz-adv-x="813" d="M58 300q-22 22 -35 66l77 16q11 -32 26.5 -45t43.5 -13q31 0 49.5 17.5t18.5 45.5q0 61 -103 61q-11 0 -20 -1v61q53 0 70 6q38 12 38 48q0 20 -15 34t-38 14q-42 0 -66 -49l-69 25q37 87 139 87q57 0 94.5 -30t37.5 -74q0 -28 -16 -51t-44 -34q40 -16 57.5 -39t17.5 -59 q0 -55 -42.5 -90t-108.5 -35q-70 0 -112 39zM258 0l230 667h67l-230 -667h-67zM485 96v54l142 250h104v-241h62v-63h-62v-96h-78v96h-168zM555 158h95v178q-4 -9 -9 -18z" />
<glyph unicode="&#xbf;" horiz-adv-x="400" d="M194 349v119h117v-119h-117zM42 -25q0 46 25 90q12 20 24 34t56 57q28 27 39.5 54t11.5 66v12h110v-8q0 -70 -20.5 -112t-91.5 -112q-45 -44 -45 -76q0 -22 15.5 -36t38.5 -14q55 0 82 73l89 -51q-19 -52 -66 -83.5t-107 -31.5q-71 0 -116 38.5t-45 99.5z" />
<glyph unicode="&#xc0;" horiz-adv-x="541" d="M231 728l-97 123h124l55 -123h-82zM-7 0l193 667h169l189 -667h-131l-47 177h-203l-48 -177h-122zM186 267h157l-65 257q-11 42 -14 57q-2 -21 -6 -35q-1 -3 -7 -27z" />
<glyph unicode="&#xc1;" horiz-adv-x="541" d="M238 728l52 123h125l-93 -123h-84zM-7 0l193 667h169l189 -667h-131l-47 177h-203l-48 -177h-122zM186 267h157l-65 257q-11 42 -14 57q-2 -21 -6 -35q-1 -3 -7 -27z" />
<glyph unicode="&#xc2;" horiz-adv-x="541" d="M110 729l102 102h122l102 -102h-101l-62 51l-63 -51h-100zM-7 0l193 667h169l189 -667h-131l-47 177h-203l-48 -177h-122zM186 267h157l-65 257q-11 42 -14 57q-2 -21 -6 -35q-1 -3 -7 -27z" />
<glyph unicode="&#xc3;" horiz-adv-x="541" d="M122 729q-1 52 28 84.5t76 32.5q19 0 30.5 -3.5t63.5 -22.5q14 -6 29 -6q16 0 23.5 8.5t11.5 28.5h62q-3 -58 -29.5 -88.5t-72.5 -30.5q-28 0 -68 15q-45 17 -57 17q-29 0 -35 -35h-62zM-7 0l193 667h169l189 -667h-131l-47 177h-203l-48 -177h-122zM186 267h157l-65 257 q-11 42 -14 57q-2 -21 -6 -35q-1 -3 -7 -27z" />
<glyph unicode="&#xc4;" horiz-adv-x="541" d="M309 743v107h113v-107h-113zM115 743v107h113v-107h-113zM-7 0l193 667h169l189 -667h-131l-47 177h-203l-48 -177h-122zM186 267h157l-65 257q-11 42 -14 57q-2 -21 -6 -35q-1 -3 -7 -27z" />
<glyph unicode="&#xc5;" horiz-adv-x="541" d="M276 718q-42 0 -71.5 28.5t-29.5 69.5q0 40 29.5 69.5t70.5 29.5t70.5 -29t29.5 -70q0 -40 -29 -69t-70 -29zM275 777q17 0 29 11.5t12 28.5t-11.5 28t-28.5 11q-18 0 -30.5 -11.5t-12.5 -28.5q0 -16 12.5 -27.5t29.5 -11.5zM-7 0l193 667h169l189 -667h-131l-47 177 h-203l-48 -177h-122zM186 267h157l-65 257q-11 42 -14 57q-2 -21 -6 -35q-1 -3 -7 -27z" />
<glyph unicode="&#xc6;" horiz-adv-x="892" d="M-13 0l385 667h473v-99h-291v-181h244v-99h-244v-189h308v-99h-431v178h-215l-98 -178h-131zM264 267l167 1v306z" />
<glyph unicode="&#xc7;" horiz-adv-x="594" d="M117 74q-80 88 -80 260q0 160 74.5 252t204.5 92q98 0 163 -57t78 -154l-121 -18q-25 138 -122 138q-83 0 -122 -94q-25 -60 -25 -152q0 -127 37 -193t108 -66q52 0 78 31q30 32 46 114l121 -17q-13 -99 -78.5 -160t-157.5 -59l-11 -47q64 -7 64 -55q0 -26 -19.5 -41 t-53.5 -15q-26 0 -59 10l9 34q24 -7 40 -7q30 0 30 23q0 24 -44 24h-12l16 74q-105 18 -164 83z" />
<glyph unicode="&#xc8;" horiz-adv-x="531" d="M250 728l-97 123h124l55 -123h-82zM70 0v667h415v-99h-292v-175h243v-99h-243v-195h308v-99h-431z" />
<glyph unicode="&#xc9;" horiz-adv-x="531" d="M240 728l52 123h125l-93 -123h-84zM70 0v667h415v-99h-292v-175h243v-99h-243v-195h308v-99h-431z" />
<glyph unicode="&#xca;" horiz-adv-x="531" d="M123 729l102 102h122l102 -102h-101l-62 51l-63 -51h-100zM70 0v667h415v-99h-292v-175h243v-99h-243v-195h308v-99h-431z" />
<glyph unicode="&#xcb;" horiz-adv-x="531" d="M326 743v107h113v-107h-113zM132 743v107h113v-107h-113zM70 0v667h415v-99h-292v-175h243v-99h-243v-195h308v-99h-431z" />
<glyph unicode="&#xcc;" horiz-adv-x="263" d="M96 728l-97 123h124l55 -123h-82zM70 0v667h123v-667h-123z" />
<glyph unicode="&#xcd;" horiz-adv-x="263" d="M96 728l52 123h125l-93 -123h-84zM70 0v667h123v-667h-123z" />
<glyph unicode="&#xce;" horiz-adv-x="263" d="M-28 729l102 102h122l102 -102h-101l-62 51l-63 -51h-100zM70 0v667h123v-667h-123z" />
<glyph unicode="&#xcf;" horiz-adv-x="263" d="M162 743v107h113v-107h-113zM2 743v107h113v-107h-113zM70 0v667h123v-667h-123z" />
<glyph unicode="&#xd0;" horiz-adv-x="609" d="M70 0v306h-67v99h67v262h161q100 0 132.5 -6t70.5 -30q67 -42 102.5 -119.5t35.5 -179.5q0 -91 -31 -164.5t-87 -117.5q-37 -28 -80.5 -39t-121.5 -11h-182zM193 99h55q106 0 151.5 56t45.5 185q0 150 -74 199q-42 29 -130 29h-48v-163h139v-99h-139v-207z" />
<glyph unicode="&#xd1;" horiz-adv-x="647" d="M199 729q-1 52 28 84.5t76 32.5q19 0 30.5 -3.5t63.5 -22.5q14 -6 29 -6q16 0 23.5 8.5t11.5 28.5h62q-3 -58 -29.5 -88.5t-72.5 -30.5q-27 0 -68 15q-45 17 -57 17q-29 0 -35 -35h-62zM70 0v667h178l177 -354q25 -50 46 -127q-11 79 -11 138v343h117v-667h-121l-236 456 q-21 39 -40 89q7 -30 7 -112v-433h-117z" />
<glyph unicode="&#xd2;" horiz-adv-x="609" d="M275 728l-97 123h124l55 -123h-82zM305 -10q-124 0 -196 89.5t-72 244.5q0 164 72.5 258.5t198.5 94.5q122 0 193.5 -91.5t71.5 -247.5q0 -118 -42 -210q-30 -66 -89 -102t-137 -36zM301 89q77 0 117 77q28 54 28 163q0 249 -141 249q-69 0 -105 -64t-36 -186 q0 -239 137 -239z" />
<glyph unicode="&#xd3;" horiz-adv-x="609" d="M273 728l52 123h125l-93 -123h-84zM305 -10q-124 0 -196 89.5t-72 244.5q0 164 72.5 258.5t198.5 94.5q122 0 193.5 -91.5t71.5 -247.5q0 -118 -42 -210q-30 -66 -89 -102t-137 -36zM301 89q77 0 117 77q28 54 28 163q0 249 -141 249q-69 0 -105 -64t-36 -186 q0 -239 137 -239z" />
<glyph unicode="&#xd4;" horiz-adv-x="609" d="M148 729l102 102h122l102 -102h-101l-62 51l-63 -51h-100zM305 -10q-124 0 -196 89.5t-72 244.5q0 164 72.5 258.5t198.5 94.5q122 0 193.5 -91.5t71.5 -247.5q0 -118 -42 -210q-30 -66 -89 -102t-137 -36zM301 89q77 0 117 77q28 54 28 163q0 249 -141 249 q-69 0 -105 -64t-36 -186q0 -239 137 -239z" />
<glyph unicode="&#xd5;" horiz-adv-x="609" d="M164 729q-1 52 28 84.5t76 32.5q19 0 30.5 -3.5t63.5 -22.5q14 -6 29 -6q16 0 23.5 8.5t11.5 28.5h62q-3 -58 -29.5 -88.5t-72.5 -30.5q-28 0 -68 15q-45 17 -57 17q-29 0 -35 -35h-62zM305 -10q-124 0 -196 89.5t-72 244.5q0 164 72.5 258.5t198.5 94.5 q122 0 193.5 -91.5t71.5 -247.5q0 -118 -42 -210q-30 -66 -89 -102t-137 -36zM301 89q77 0 117 77q28 54 28 163q0 249 -141 249q-69 0 -105 -64t-36 -186q0 -239 137 -239z" />
<glyph unicode="&#xd6;" horiz-adv-x="609" d="M347 743v107h114v-107h-114zM161 743v107h114v-107h-114zM305 -10q-124 0 -196 89.5t-72 244.5q0 164 72.5 258.5t198.5 94.5q122 0 193.5 -91.5t71.5 -247.5q0 -118 -42 -210q-30 -66 -89 -102t-137 -36zM301 89q77 0 117 77q28 54 28 163q0 249 -141 249 q-69 0 -105 -64t-36 -186q0 -239 137 -239z" />
<glyph unicode="&#xd7;" d="M113 129l-51 51l154 153l-154 154l51 51l154 -154l153 154l51 -51l-153 -154l153 -153l-51 -51l-153 153z" />
<glyph unicode="&#xd8;" horiz-adv-x="609" d="M51 25l50 65q-64 98 -64 234q0 164 72.5 258.5t198.5 94.5q98 0 169 -65l42 57l36 -34l-46 -61q64 -92 64 -234q0 -167 -70.5 -258.5t-197.5 -91.5q-103 0 -172 63l-48 -64zM178 200l231 318q-40 60 -104 60q-69 0 -105 -63.5t-36 -185.5q0 -90 14 -129zM201 145 q37 -56 100 -56q78 0 117 77q28 54 28 170q0 68 -15 129z" />
<glyph unicode="&#xd9;" horiz-adv-x="594" d="M271 728l-97 123h124l55 -123h-82zM108 65q-28 33 -36.5 68t-8.5 124v410h123v-410q0 -58 4 -82.5t17 -43.5q30 -42 90 -42q77 0 99 58q11 28 11 102v418h123v-418q0 -111 -38 -165q-30 -43 -85 -68.5t-118 -25.5q-117 0 -181 75z" />
<glyph unicode="&#xda;" horiz-adv-x="594" d="M265 728l52 123h125l-93 -123h-84zM108 65q-28 33 -36.5 68t-8.5 124v410h123v-410q0 -58 4 -82.5t17 -43.5q30 -42 90 -42q77 0 99 58q11 28 11 102v418h123v-418q0 -111 -38 -165q-30 -43 -85 -68.5t-118 -25.5q-117 0 -181 75z" />
<glyph unicode="&#xdb;" horiz-adv-x="594" d="M144 729l102 102h122l102 -102h-101l-62 51l-63 -51h-100zM108 65q-28 33 -36.5 68t-8.5 124v410h123v-410q0 -58 4 -82.5t17 -43.5q30 -42 90 -42q77 0 99 58q11 28 11 102v418h123v-418q0 -111 -38 -165q-30 -43 -85 -68.5t-118 -25.5q-117 0 -181 75z" />
<glyph unicode="&#xdc;" horiz-adv-x="594" d="M343 743v107h114v-107h-114zM157 743v107h114v-107h-114zM108 65q-28 33 -36.5 68t-8.5 124v410h123v-410q0 -58 4 -82.5t17 -43.5q30 -42 90 -42q77 0 99 58q11 28 11 102v418h123v-418q0 -111 -38 -165q-30 -43 -85 -68.5t-118 -25.5q-117 0 -181 75z" />
<glyph unicode="&#xdd;" horiz-adv-x="507" d="M222 728l52 123h125l-93 -123h-84zM191 0v274l-204 393h131l122 -265q13 -29 16 -40q5 23 13 40l127 265h125l-207 -383v-284h-123z" />
<glyph unicode="&#xde;" horiz-adv-x="537" d="M70 0v667h123v-100h67q98 0 155 -29q46 -22 72.5 -69.5t26.5 -105.5q0 -84 -55 -141q-31 -31 -71.5 -44t-105.5 -13h-89v-165h-123zM193 264h71q60 0 89 21q34 26 34 81q0 66 -47 90q-23 12 -91 12h-56v-204z" />
<glyph unicode="&#xdf;" horiz-adv-x="500" d="M57 0v441q0 119 27 161q50 77 172 77q81 0 132 -44.5t51 -115.5q0 -44 -23.5 -76t-65.5 -45q59 -10 90.5 -58.5t31.5 -128.5q0 -102 -48 -162.5t-128 -60.5q-24 0 -51 9v84q6 -1 14 -1q44 0 70 36.5t26 99.5q0 73 -34 107q-12 12 -27.5 17.5t-48.5 9.5v84q77 12 77 83 q0 36 -19.5 58t-52.5 22q-21 0 -39.5 -11t-25.5 -28q-11 -26 -11 -90v-468h-117z" />
<glyph unicode="&#xe0;" horiz-adv-x="497" d="M222 542l-97 123h124l55 -123h-82zM36 125q0 73 64 112t223 61q0 49 -3 64q-8 38 -65 38q-74 0 -84 -61l-111 16q26 126 190 126q190 0 190 -156v-214q0 -62 7 -111h-113q-6 18 -11 47q-75 -57 -145 -57q-64 0 -103 37t-39 98zM153 119q0 -22 14 -35.5t37 -13.5 q47 0 119 55v85q-65 -9 -110 -26q-60 -21 -60 -65z" />
<glyph unicode="&#xe1;" horiz-adv-x="497" d="M216 542l52 123h125l-93 -123h-84zM36 125q0 73 64 112t223 61q0 49 -3 64q-8 38 -65 38q-74 0 -84 -61l-111 16q26 126 190 126q190 0 190 -156v-214q0 -62 7 -111h-113q-6 18 -11 47q-75 -57 -145 -57q-64 0 -103 37t-39 98zM153 119q0 -22 14 -35.5t37 -13.5 q47 0 119 55v85q-65 -9 -110 -26q-60 -21 -60 -65z" />
<glyph unicode="&#xe2;" horiz-adv-x="497" d="M102 542l96 123h121l96 -123h-101l-55 58l-57 -58h-100zM36 125q0 73 64 112t223 61q0 49 -3 64q-8 38 -65 38q-74 0 -84 -61l-111 16q26 126 190 126q190 0 190 -156v-214q0 -62 7 -111h-113q-6 18 -11 47q-75 -57 -145 -57q-64 0 -103 37t-39 98zM153 119 q0 -22 14 -35.5t37 -13.5q47 0 119 55v85q-65 -9 -110 -26q-60 -21 -60 -65z" />
<glyph unicode="&#xe3;" horiz-adv-x="497" d="M131 543q0 53 25.5 85t67.5 32q16 0 26 -3t56 -23q14 -6 26 -6q14 0 21 8.5t11 28.5h55q-6 -119 -91 -119q-26 0 -60 15q-41 17 -51 17q-26 0 -31 -35h-55zM36 125q0 73 64 112t223 61q0 49 -3 64q-8 38 -65 38q-74 0 -84 -61l-111 16q26 126 190 126q190 0 190 -156 v-214q0 -62 7 -111h-113q-6 18 -11 47q-75 -57 -145 -57q-64 0 -103 37t-39 98zM153 119q0 -22 14 -35.5t37 -13.5q47 0 119 55v85q-65 -9 -110 -26q-60 -21 -60 -65z" />
<glyph unicode="&#xe4;" horiz-adv-x="497" d="M304 556v107h113v-107h-113zM110 556v107h113v-107h-113zM36 125q0 73 64 112t223 61q0 49 -3 64q-8 38 -65 38q-74 0 -84 -61l-111 16q26 126 190 126q190 0 190 -156v-214q0 -62 7 -111h-113q-6 18 -11 47q-75 -57 -145 -57q-64 0 -103 37t-39 98zM153 119 q0 -22 14 -35.5t37 -13.5q47 0 119 55v85q-65 -9 -110 -26q-60 -21 -60 -65z" />
<glyph unicode="&#xe5;" horiz-adv-x="497" d="M262 532q-42 0 -71.5 28.5t-29.5 69.5q0 40 29.5 69.5t70.5 29.5t70.5 -29t29.5 -70q0 -40 -29 -69t-70 -29zM261 591q17 0 29 11.5t12 28.5t-11.5 28t-28.5 11q-18 0 -30.5 -11.5t-12.5 -28.5q0 -16 12.5 -27.5t29.5 -11.5zM36 125q0 73 64 112t223 61q0 49 -3 64 q-8 38 -65 38q-74 0 -84 -61l-111 16q26 126 190 126q190 0 190 -156v-214q0 -62 7 -111h-113q-6 18 -11 47q-75 -57 -145 -57q-64 0 -103 37t-39 98zM153 119q0 -22 14 -35.5t37 -13.5q47 0 119 55v85q-65 -9 -110 -26q-60 -21 -60 -65z" />
<glyph unicode="&#xe6;" horiz-adv-x="747" d="M35 122q0 56 32 90t103 55q37 11 151 31q1 13 1 27q0 75 -74 75q-66 0 -79 -63l-109 16q23 128 189 128q104 0 146 -51q52 52 132 52q88 0 139.5 -65.5t51.5 -177.5q0 -16 -1 -29h-285q1 -66 26 -102.5t71 -36.5q61 0 87 76l101 -16q-19 -69 -68.5 -105t-125.5 -36 q-102 0 -164 75q-84 -75 -181 -75q-66 0 -104.5 35.5t-38.5 96.5zM432 280h178q-9 121 -86 121q-83 0 -92 -121zM151 119q0 -22 14.5 -35t37.5 -13q55 0 126 59q-9 38 -9 64q0 9 1 16q-91 -17 -130.5 -38t-39.5 -53z" />
<glyph unicode="&#xe7;" horiz-adv-x="460" d="M110 33q-38 29 -59.5 80.5t-21.5 113.5q0 114 61 185t159 71q72 0 122.5 -44.5t59.5 -115.5l-104 -16q-9 92 -79 92q-97 0 -97 -163q0 -77 25.5 -121.5t69.5 -44.5q65 0 81 98l104 -15q-5 -69 -57.5 -115.5t-123.5 -45.5l-9 -46q63 -8 63 -55q0 -26 -19.5 -41t-53.5 -15 q-32 0 -61 10l10 35q29 -8 41 -8q29 0 29 23q0 24 -47 24h-10l16 73q-63 14 -99 41z" />
<glyph unicode="&#xe8;" horiz-adv-x="464" d="M203 542l-97 123h124l55 -123h-82zM29 231q0 115 56.5 183t152.5 68q93 0 145.5 -64.5t52.5 -177.5q0 -17 -1 -30h-288q0 -65 26.5 -102t73.5 -37q63 0 86 77l102 -16q-10 -62 -64.5 -102t-130.5 -40q-98 0 -154.5 64.5t-56.5 176.5zM147 280h179q-4 49 -16 75 q-21 45 -71 45q-41 0 -64.5 -31t-27.5 -89z" />
<glyph unicode="&#xe9;" horiz-adv-x="464" d="M204 542l52 123h125l-93 -123h-84zM29 231q0 115 56.5 183t152.5 68q93 0 145.5 -64.5t52.5 -177.5q0 -17 -1 -30h-288q0 -65 26.5 -102t73.5 -37q63 0 86 77l102 -16q-10 -62 -64.5 -102t-130.5 -40q-98 0 -154.5 64.5t-56.5 176.5zM147 280h179q-4 49 -16 75 q-21 45 -71 45q-41 0 -64.5 -31t-27.5 -89z" />
<glyph unicode="&#xea;" horiz-adv-x="464" d="M86 542l96 123h121l96 -123h-101l-55 58l-57 -58h-100zM29 231q0 115 56.5 183t152.5 68q93 0 145.5 -64.5t52.5 -177.5q0 -17 -1 -30h-288q0 -65 26.5 -102t73.5 -37q63 0 86 77l102 -16q-10 -62 -64.5 -102t-130.5 -40q-98 0 -154.5 64.5t-56.5 176.5zM147 280h179 q-4 49 -16 75q-21 45 -71 45q-41 0 -64.5 -31t-27.5 -89z" />
<glyph unicode="&#xeb;" horiz-adv-x="464" d="M283 556v107h113v-107h-113zM89 556v107h113v-107h-113zM29 231q0 115 56.5 183t152.5 68q93 0 145.5 -64.5t52.5 -177.5q0 -17 -1 -30h-288q0 -65 26.5 -102t73.5 -37q63 0 86 77l102 -16q-10 -62 -64.5 -102t-130.5 -40q-98 0 -154.5 64.5t-56.5 176.5zM147 280h179 q-4 49 -16 75q-21 45 -71 45q-41 0 -64.5 -31t-27.5 -89z" />
<glyph unicode="&#xec;" horiz-adv-x="231" d="M76 542l-97 123h124l55 -123h-82zM57 0v468h117v-468h-117z" />
<glyph unicode="&#xed;" horiz-adv-x="231" d="M84 542l52 123h125l-93 -123h-84zM57 0v468h117v-468h-117z" />
<glyph unicode="&#xee;" horiz-adv-x="231" d="M-38 542l96 123h121l96 -123h-101l-55 58l-57 -58h-100zM56 0v468h117v-468h-117z" />
<glyph unicode="&#xef;" horiz-adv-x="231" d="M142 556v107h113v-107h-113zM-18 556v107h113v-107h-113zM57 0v468h117v-468h-117z" />
<glyph unicode="&#xf0;" horiz-adv-x="477" d="M29 231q0 96 39 157q26 42 71.5 67.5t93.5 25.5q8 0 17 -1l-28 58l-79 -41l-37 67l82 43l-37 75l71 38l42 -72l78 41l37 -68l-77 -41l84 -146l8 -13q54 -89 54 -182q0 -114 -57 -181.5t-152 -67.5q-97 0 -153.5 65t-56.5 176zM238 71q45 0 69 43t24 125q0 161 -91 161 q-94 0 -94 -161q0 -168 92 -168z" />
<glyph unicode="&#xf1;" horiz-adv-x="499" d="M119 543q0 53 25.5 85t67.5 32q16 0 26 -3t56 -23q14 -6 26 -6q14 0 21 8.5t11 28.5h55q-6 -119 -91 -119q-26 0 -60 15q-41 17 -51 17q-26 0 -31 -35h-55zM57 0v468h117v-70q56 83 147 83q34 0 64.5 -19t42.5 -48q14 -35 14 -111v-303h-117v303q0 48 -8 62 q-13 26 -51 26q-47 0 -92 -48v-343h-117z" />
<glyph unicode="&#xf2;" horiz-adv-x="477" d="M203 542l-97 123h124l55 -123h-82zM29 234q0 114 56.5 180.5t153.5 66.5t153.5 -66.5t56.5 -180.5q0 -88 -41 -155q-54 -89 -169 -89q-97 0 -153.5 66t-56.5 178zM238 71q94 0 94 168q0 161 -92 161q-94 0 -94 -161q0 -168 92 -168z" />
<glyph unicode="&#xf3;" horiz-adv-x="477" d="M203 542l52 123h125l-93 -123h-84zM29 234q0 114 56.5 180.5t153.5 66.5t153.5 -66.5t56.5 -180.5q0 -88 -41 -155q-54 -89 -169 -89q-97 0 -153.5 66t-56.5 178zM238 71q94 0 94 168q0 161 -92 161q-94 0 -94 -161q0 -168 92 -168z" />
<glyph unicode="&#xf4;" horiz-adv-x="477" d="M86 542l96 123h121l96 -123h-101l-55 58l-57 -58h-100zM29 234q0 114 56.5 180.5t153.5 66.5t153.5 -66.5t56.5 -180.5q0 -88 -41 -155q-54 -89 -169 -89q-97 0 -153.5 66t-56.5 178zM238 71q94 0 94 168q0 161 -92 161q-94 0 -94 -161q0 -168 92 -168z" />
<glyph unicode="&#xf5;" horiz-adv-x="477" d="M118 543q0 53 25.5 85t67.5 32q16 0 26 -3t56 -23q13 -6 26 -6q14 0 21 8.5t11 28.5h55q-6 -119 -91 -119q-25 0 -60 15q-41 17 -51 17q-26 0 -31 -35h-55zM29 234q0 114 56.5 180.5t153.5 66.5t153.5 -66.5t56.5 -180.5q0 -88 -41 -155q-54 -89 -169 -89 q-97 0 -153.5 66t-56.5 178zM238 71q94 0 94 168q0 161 -92 161q-94 0 -94 -161q0 -168 92 -168z" />
<glyph unicode="&#xf6;" horiz-adv-x="477" d="M285 556v107h114v-107h-114zM99 556v107h114v-107h-114zM29 234q0 114 56.5 180.5t153.5 66.5t153.5 -66.5t56.5 -180.5q0 -88 -41 -155q-54 -89 -169 -89q-97 0 -153.5 66t-56.5 178zM238 71q94 0 94 168q0 161 -92 161q-94 0 -94 -161q0 -168 92 -168z" />
<glyph unicode="&#xf7;" d="M210 441v120h113v-120h-113zM33 297v72h467v-72h-467zM210 103v120h113v-120h-113z" />
<glyph unicode="&#xf8;" horiz-adv-x="477" d="M51 -8l41 57q-63 72 -63 184q0 115 56.5 181.5t153.5 66.5q65 0 115 -33l35 51l33 -27l-35 -51q62 -69 62 -185q0 -89 -41 -157q-54 -89 -172 -89q-52 0 -86 18q-16 8 -17 8t-2 0.5t-3.5 1.5t-4.5 2l-37 -50zM156 145l146 224q-25 31 -62 31q-94 0 -94 -161q0 -53 10 -94 zM176 102q27 -31 62 -31q94 0 94 171q0 46 -10 83z" />
<glyph unicode="&#xf9;" horiz-adv-x="499" d="M221 542l-97 123h124l55 -123h-82zM85 38q-18 24 -23 48t-5 87v295h117v-295q0 -47 2 -61t10 -23q15 -18 47 -18q48 0 93 48v349h117v-468h-107v62q-37 -40 -68 -56t-74 -16q-73 0 -109 48z" />
<glyph unicode="&#xfa;" horiz-adv-x="499" d="M218 542l52 123h125l-93 -123h-84zM85 38q-18 24 -23 48t-5 87v295h117v-295q0 -47 2 -61t10 -23q15 -18 47 -18q48 0 93 48v349h117v-468h-107v62q-37 -40 -68 -56t-74 -16q-73 0 -109 48z" />
<glyph unicode="&#xfb;" horiz-adv-x="499" d="M104 542l96 123h121l96 -123h-101l-55 58l-57 -58h-100zM85 38q-18 24 -23 48t-5 87v295h117v-295q0 -47 2 -61t10 -23q15 -18 47 -18q48 0 93 48v349h117v-468h-107v62q-37 -40 -68 -56t-74 -16q-73 0 -109 48z" />
<glyph unicode="&#xfc;" horiz-adv-x="499" d="M299 556v107h114v-107h-114zM113 556v107h114v-107h-114zM85 38q-18 24 -23 48t-5 87v295h117v-295q0 -47 2 -61t10 -23q15 -18 47 -18q48 0 93 48v349h117v-468h-107v62q-37 -40 -68 -56t-74 -16q-73 0 -109 48z" />
<glyph unicode="&#xfd;" horiz-adv-x="412" d="M180 542l52 123h125l-93 -123h-84zM12 -57q39 -16 66 -16t44 16.5t33 59.5l-162 465h121l83 -291l4 -14q5 -17 11 -43q2 6 5.5 20.5t9.5 36.5l85 291h106l-158 -465q-26 -79 -55 -113q-48 -53 -121 -53q-33 0 -72 14v92z" />
<glyph unicode="&#xfe;" horiz-adv-x="505" d="M57 -160v827h117v-271q46 85 131 85q79 0 125.5 -66t46.5 -179q0 -100 -35 -161q-22 -38 -60.5 -61.5t-81.5 -23.5q-88 0 -126 91v-241h-117zM174 142q42 -62 93 -62q93 0 93 152q0 168 -89 168q-26 0 -46.5 -14t-50.5 -54v-190z" />
<glyph unicode="&#xff;" horiz-adv-x="412" d="M256 556v107h113v-107h-113zM62 556v107h113v-107h-113zM12 -57q39 -16 66 -16t44 16.5t33 59.5l-162 465h121l83 -291l4 -14q5 -17 11 -43q2 6 5.5 20.5t9.5 36.5l85 291h106l-158 -465q-26 -79 -55 -113q-48 -53 -121 -53q-33 0 -72 14v92z" />
<glyph unicode="&#x152;" horiz-adv-x="908" d="M297 -10q-119 0 -189.5 92.5t-70.5 249.5q0 151 61 238q31 46 85.5 76.5t104.5 30.5q79 0 159 -66v48h415v-99h-292v-175h244v-99h-244v-187h308v-99h-431v46q-70 -56 -150 -56zM306 89q67 0 104 61t37 171q0 257 -143 257q-67 0 -103.5 -64.5t-36.5 -183.5 q0 -241 142 -241z" />
<glyph unicode="&#x153;" horiz-adv-x="761" d="M29 234q0 113 57 180.5t154 67.5q96 0 153 -69q59 69 148 69q88 0 139.5 -65t51.5 -177v-30h-287q1 -48 8 -71q9 -31 32.5 -49.5t55.5 -18.5q69 0 89 74l102 -19q-14 -62 -66.5 -99t-126.5 -37q-101 0 -146 62q-61 -62 -150 -62q-100 0 -157 65t-57 179zM445 280h178 q1 57 -22 89t-64 32q-81 0 -92 -121zM241 71q50 0 72 45q20 40 20 118q0 81 -20 120q-25 47 -73 47q-45 0 -69 -41t-24 -117q0 -172 94 -172z" />
<glyph unicode="&#x178;" horiz-adv-x="507" d="M301 743v107h113v-107h-113zM107 743v107h113v-107h-113zM191 0v274l-204 393h131l122 -265q13 -29 16 -40q5 23 13 40l127 265h125l-207 -383v-284h-123z" />
<glyph unicode="&#x2c6;" horiz-adv-x="500" d="M94 542l96 123h121l96 -123h-101l-55 58l-57 -58h-100z" />
<glyph unicode="&#x2dc;" horiz-adv-x="500" d="M106 543q0 53 25.5 85t67.5 32q16 0 26 -3t56 -23q14 -6 26 -6q14 0 21 8.5t11 28.5h55q-6 -119 -91 -119q-25 0 -60 15q-41 17 -51 17q-26 0 -31 -35h-55z" />
<glyph unicode="&#x2000;" horiz-adv-x="457" />
<glyph unicode="&#x2001;" horiz-adv-x="915" />
<glyph unicode="&#x2002;" horiz-adv-x="457" />
<glyph unicode="&#x2003;" horiz-adv-x="915" />
<glyph unicode="&#x2004;" horiz-adv-x="305" />
<glyph unicode="&#x2005;" horiz-adv-x="228" />
<glyph unicode="&#x2006;" horiz-adv-x="152" />
<glyph unicode="&#x2007;" horiz-adv-x="152" />
<glyph unicode="&#x2008;" horiz-adv-x="114" />
<glyph unicode="&#x2009;" horiz-adv-x="183" />
<glyph unicode="&#x200a;" horiz-adv-x="50" />
<glyph unicode="&#x2010;" horiz-adv-x="222" d="M0 185v97h222v-97h-222z" />
<glyph unicode="&#x2011;" horiz-adv-x="222" d="M0 185v97h222v-97h-222z" />
<glyph unicode="&#x2012;" horiz-adv-x="222" d="M0 185v97h222v-97h-222z" />
<glyph unicode="&#x2013;" d="M33 185v97h467v-97h-467z" />
<glyph unicode="&#x2014;" horiz-adv-x="667" d="M0 195v97h667v-97h-667z" />
<glyph unicode="&#x2018;" horiz-adv-x="247" d="M67 440v97l84 143l29 -13l-38 -107h38v-120h-113z" />
<glyph unicode="&#x2019;" horiz-adv-x="247" d="M96 427l-29 13l38 107h-38v120h113v-97z" />
<glyph unicode="&#x201a;" horiz-adv-x="247" d="M67 0v120h113v-97l-84 -143l-29 13l38 107h-38z" />
<glyph unicode="&#x201c;" horiz-adv-x="427" d="M247 440v97l84 143l29 -13l-38 -107h38v-120h-113zM67 440v97l84 143l29 -13l-38 -107h38v-120h-113z" />
<glyph unicode="&#x201d;" horiz-adv-x="427" d="M247 440l38 107h-38v120h113v-97l-84 -143zM96 427l-29 13l38 107h-38v120h113v-97z" />
<glyph unicode="&#x201e;" horiz-adv-x="427" d="M247 0v120h113v-97l-84 -143l-29 13l38 107h-38zM67 0v120h113v-97l-84 -143l-29 13l38 107h-38z" />
<glyph unicode="&#x2022;" horiz-adv-x="667" d="M335 200q-57 0 -98 40.5t-41 97.5q0 58 41 98.5t100 40.5q55 0 95.5 -41t40.5 -97q0 -58 -40.5 -98.5t-97.5 -40.5z" />
<glyph unicode="&#x2026;" horiz-adv-x="740" d="M561 0v120h113v-120h-113zM314 0v120h113v-120h-113zM67 0v120h113v-120h-113z" />
<glyph unicode="&#x202f;" horiz-adv-x="183" />
<glyph unicode="&#x2039;" horiz-adv-x="224" d="M93 44l-70 189l75 190h82l-70 -190l70 -189h-87z" />
<glyph unicode="&#x203a;" horiz-adv-x="226" d="M47 44l69 189l-73 190h84l75 -190l-70 -189h-85z" />
<glyph unicode="&#x205f;" horiz-adv-x="228" />
<glyph unicode="&#x20ac;" horiz-adv-x="679" d="M33 227l40 94h51v3v6v13v3h-91l40 94h60q20 108 92.5 172.5t175.5 64.5q118 0 187 -80q42 -48 57 -130l-122 -20q-7 60 -39 95.5t-81 35.5q-54 0 -92 -37t-51 -101h192l-40 -94h-161v-3v-8v-14h150l-40 -94h-100q31 -138 136 -138q104 0 126 139l122 -18 q-16 -105 -80 -162.5t-166 -57.5q-107 0 -176 61t-90 176h-100z" />
<glyph unicode="&#x2122;" horiz-adv-x="779" d="M351 287v380h133l67 -248l59 248h130v-380h-78l1 300l-80 -300h-69l-85 296v-296h-78zM114 287v314h-113v66h310v-66h-115v-314h-82z" />
<glyph unicode="&#x25fc;" horiz-adv-x="470" d="M0 470h470v-470h-470v470z" />
</font>
</defs>
</svg>
